<svg id="Layer_1" data-name="Layer 1" xmlns="http://www.w3.org/2000/svg" xmlns:xlink="http://www.w3.org/1999/xlink" viewBox="0 0 500 500"><defs><style>.cls-1,.cls-6{fill:none;}.cls-2{clip-path:url(#clip-path);}.cls-3{fill:#d16b1e;}.cls-4{clip-path:url(#clip-path-2);}.cls-5{fill:#3f0c01;}.cls-21,.cls-5{opacity:0.19;}.cls-21,.cls-22,.cls-23,.cls-24,.cls-5,.cls-9{isolation:isolate;}.cls-6{stroke:#000;stroke-miterlimit:10;stroke-width:0.69px;}.cls-7{fill:#f9d3a0;}.cls-8{fill:#db995d;}.cls-9{fill:#542502;opacity:0.16;}.cls-10,.cls-22{fill:#f4b572;}.cls-11{fill:#8f4200;}.cls-12{fill:#a01515;}.cls-13{fill:#773612;}.cls-14{fill:#fff;}.cls-15{fill:#7c3601;}.cls-16{fill:#7c5a56;}.cls-17{fill:#ffb769;}.cls-18{fill:#5b311f;}.cls-19{fill:#47322f;}.cls-20{fill:#f9ebdc;}.cls-21{fill:#421203;}.cls-22,.cls-24{opacity:0.25;}.cls-23{fill:#280900;opacity:0.35;}.cls-24{fill:#fff5ab;}</style><clipPath id="clip-path"><circle class="cls-1" cx="249.95" cy="258.76" r="198.04"/></clipPath><clipPath id="clip-path-2"><circle class="cls-1" cx="250.04" cy="258.72" r="198.04" transform="translate(-109.71 252.59) rotate(-45)"/></clipPath></defs><g class="cls-2"><circle class="cls-3" cx="250.04" cy="258.84" r="198.04" transform="translate(-109.79 252.62) rotate(-45)"/></g><g class="cls-4"><path class="cls-5" d="M138.36,429.17s-.55-78.54,11.61-97.35,45.36-28.77,49.79-34.3,8.64-10.45,14.38-14.38c0,0-17.7-9.95-19.92-13.83s-4.42-28.76-4.42-28.76-15.49-2.77-16-23.78,6.08-26,6.08-26-11-29.37-3.59-37.62c0,0,.06-12.42,5.25-17.14,0,0-10.5-17.34,7.75-24.34s24.89-8.85,24.89-8.85l53.1,354S194.78,480.06,138.36,429.17Z"/></g><g class="cls-4"><path class="cls-6" d="M315.14,227.78s8.27,11.71-3,38.29-4.72,49.77-4.72,49.77"/><path class="cls-7" d="M237.33,317.15c-6.09-3.23-20.09-12.22-13.07-20.23s51.41-10.11,56.18,1.55S261.91,330.21,237.33,317.15Z"/><path class="cls-8" d="M277.41,303.32c0,17.92,1.36,37.65,1.36,37.65s-7.45,24.6-25.41,24.6-25.29-20.87-25.29-20.87c.37-26.46-2.68-61.1-2.68-61.1s17.23,2.57,21.33,2.19,13.42-2.22,17.64.38,14.41-5.58,14.41-5.58a73.2,73.2,0,0,0-1,9C277.51,293.76,277.41,298.47,277.41,303.32Z"/><path class="cls-9" d="M277.41,303.32c0,17.92,1.36,37.65,1.36,37.65s-7.45,24.6-25.41,24.6-25.29-20.87-25.29-20.87c.37-26.46-2.68-61.1-2.68-61.1s17.23,2.57,21.33,2.19,13.42-2.22,17.64.38,14.41-5.58,14.41-5.58a73.2,73.2,0,0,0-1,9,13.08,13.08,0,0,1-6,3.35c-6.93,2-8.19-1.66-18.4,0s-13.34,4.12-13.17,15.77S268,318.46,277.41,303.32Z"/><path class="cls-10" d="M301.64,227.5a52,52,0,0,1-6.09,14.68c-12.67,20.13-40.25,30.44-48.83,29.57s-54.67-9.91-48.4-73.81c0,0,3.79-36.66,0-43,0,0,5.52,1.1,21.18-5.23s20.74-13.42,21.56-19.39c0,0,9.52,10.44,20.47,0,0,0,11.67,7.09,20.42,1.49,0,0,10.23,7.81,14.33,17.13l0,0c4.1,9.32,10,25.33,7.24,40.62C303.54,189.61,306.37,209.3,301.64,227.5Z"/><path class="cls-9" d="M301.64,227.5a52,52,0,0,1-6.09,14.68c-12.67,20.13-40.25,30.44-48.83,29.57s-54.67-9.91-48.4-73.81c0,0,3.79-36.66,0-43,0,0,5.52,1.1,21.18-5.23s20.74-13.42,21.56-19.39c0,0,9.52,10.44,20.47,0,0,0,11.67,7.09,20.42,1.49,0,0,10.23,7.81,14.33,17.13-.55-.39-11.22-8.06-16.34-4.85s-10.35,5.05-15.77-.78c0,0-1.95,2.9-14.12,2.84,0,0-8.87,9.77-16.75,9.1,0,0-13.69,39.25-5.92,64.41s26.16,8.61,41.4,17.74,30.75-5.76,32.75-9.78A.22.22,0,0,1,301.64,227.5Z"/><path class="cls-11" d="M265,184.78c2.5,4.64,13-4.49,23.48,0,10.84,4.65,12.38,2.63,8.45-1.67C289.21,174.7,259.76,175.08,265,184.78Z"/><path class="cls-11" d="M232.22,184.78c-2.5,4.64-13.05-4.49-23.49,0-10.83,4.65-12.37,2.63-8.44-1.67C208,174.7,237.44,175.08,232.22,184.78Z"/><path class="cls-11" d="M303.75,260.09c-1.32,3.15-5.64,7.35-10.84,11.57a1.4,1.4,0,0,0-.2.16,13.66,13.66,0,0,1-1.08.84,220.76,220.76,0,0,1-23.28,15.75c-4.1,2.23-9.7-.74-14.93,0s-10.8,3.35-22.35-1.87-30.81-19.75-32.75-22.73-2.17-45.85,0-60c0,0,1.8,22,2.92,25.36s11.93,14.52,16,16.4,15.28,1.12,21.62-2.23,18.28-4.12,22.73-1.87A60.71,60.71,0,0,0,272.13,245c4.42,1.12,9,1.87,11.87,1.55,5.6-.63,15.65-10.33,17.52-18.9s1.5-37.52,2.23-40.2S307.5,251.13,303.75,260.09Z"/><path class="cls-12" d="M249,252.25c6.71-.19,23.86-1.5,23.11,1.86s-16,9.69-20.88,10.44-25-9.25-23.11-11.15S242.28,252.43,249,252.25Z"/><path class="cls-13" d="M246.72,234.25a6.18,6.18,0,0,1-2.4,0,5.21,5.21,0,0,1-1.16-.32,4.41,4.41,0,0,1-1.21-.7,4.11,4.11,0,0,1-1-1.18,4.46,4.46,0,0,1-.51-1.53l-.07-.8.08-.76a4.72,4.72,0,0,1,.35-1.4,9.37,9.37,0,0,1,1.1-2.22,15.14,15.14,0,0,1,1.07-1.35c.27-.31.44-.48.44-.48s-.06.24-.19.63-.33.92-.56,1.57c-.09.33-.19.69-.31,1a6.91,6.91,0,0,0-.29,1.15,6.1,6.1,0,0,0-.18,1.2l-.05.61.08.57a3,3,0,0,0,.31,1.07c.1.16.19.31.27.47s.25.28.36.42a5.58,5.58,0,0,0,.85.69,8.21,8.21,0,0,0,.91.5,12.61,12.61,0,0,0,1.53.59Z"/><path class="cls-13" d="M255.85,234.25l.62-.19a12,12,0,0,0,1.53-.59,6.94,6.94,0,0,0,.91-.51,4.61,4.61,0,0,0,.85-.68c.12-.14.25-.27.36-.42s.18-.32.28-.47a2.94,2.94,0,0,0,.3-1.07l.08-.58,0-.6a5.62,5.62,0,0,0-.18-1.21,7,7,0,0,0-.29-1.14c-.12-.36-.22-.72-.31-1-.23-.65-.42-1.19-.55-1.58s-.19-.62-.19-.62a6.31,6.31,0,0,1,.44.48c.25.32.67.75,1.07,1.35a9.89,9.89,0,0,1,1.1,2.21,5.21,5.21,0,0,1,.35,1.41l.08.76-.07.8a4.48,4.48,0,0,1-.52,1.53,4.06,4.06,0,0,1-1,1.18,4.28,4.28,0,0,1-1.22.69,4.54,4.54,0,0,1-1.16.33A6.2,6.2,0,0,1,255.85,234.25Z"/><path class="cls-14" d="M228.08,253.4s3.73,4.45,8.58,4.82,20.14,0,24.86,0,7.64-6,7.64-6S243.74,245.6,228.08,253.4Z"/><path class="cls-15" d="M264.92,129.11a10.76,10.76,0,0,1-1,3.6,9.57,9.57,0,0,1-8.1,5.44c-7.43.79-12-2.16-14-4a9.83,9.83,0,0,1-1.32-1.38c-.69-1.26-1.4-2.46-2.15-3.59a40.25,40.25,0,0,0-22.51-17,35.79,35.79,0,0,0-12.36-1.58,6.2,6.2,0,0,1,.18-.78c1.48-6.57,8.14-14.51,20.32-15.24,5.92-.36,11.73,1.65,17.27,4.91,6.31,3.72,12.24,9.1,17.45,14.47C263.44,118.85,265.41,124.49,264.92,129.11Z"/><path class="cls-11" d="M285.14,132.91a8.06,8.06,0,0,1-3.19,2.64c-8,3.82-14.63,0-18-2.84a18.45,18.45,0,0,1-2.42-2.38,10.86,10.86,0,0,0,0-2.25c-.28-3.65-2.13-11.3-11.5-19.73a61,61,0,0,0-10.7-7.77,49.16,49.16,0,0,0-15.36-6c12.68-10,28.51-7,41.76,0h0c1.16.59,2.28,1.22,3.41,1.89a30.72,30.72,0,0,1,5.52,4.28c6.6,6.4,11.59,16.1,12.24,23.81C287.19,127.8,286.68,130.74,285.14,132.91Z"/><path class="cls-15" d="M297.05,130.33c-6.78,5.72-11.51,2.84-11.91,2.58l0,0A37.35,37.35,0,0,0,285,124c-1.3-10.23-6.64-17.9-11.37-22.85l0,0a43.8,43.8,0,0,0-7.89-6.64c10.19-.63,17.84,2.44,23.26,7l.1.08a28.26,28.26,0,0,1,4.2,4.44.06.06,0,0,1,0,0,30.24,30.24,0,0,1,5.52,11.57C300.16,123.33,299.45,128.32,297.05,130.33Z"/><path class="cls-11" d="M241.81,134.13c-.24,2.49-1.87,6-7.57,9.62-2.52,1.62-4.55,2.07-6.39,1.76-2.91-.45-5.3-2.76-8.27-5.22-3.35-2.78-7.46-5.74-13.86-6.43-2.27-.24-4.24-.42-6-.51-6.78-.46-9.93-.1-11.31.21h0a3.37,3.37,0,0,0-.93.3s-11.17-9,0-17.47a36.37,36.37,0,0,1,16.21-6.6,32.73,32.73,0,0,1,17.56,2.15h0c6.33,2.66,12.62,7.61,18.18,15.85.55.81,1.1,1.65,1.63,2.54A6.29,6.29,0,0,1,241.81,134.13Z"/><path class="cls-15" d="M228,145.67c-8.93,7.92-18.57,10.33-26.71,9.81a26.86,26.86,0,0,1-2.9-.29,29.65,29.65,0,0,1-5.73-1.44,21.66,21.66,0,0,1-8.52-5.15c-6.72-7.08,3.35-14.74,3.35-14.74l.93-.3h0a43,43,0,0,1,12.53-2.13,30.89,30.89,0,0,1,20.54,7h0a28.74,28.74,0,0,1,6.34,7.12Z"/><path class="cls-11" d="M198.32,203.78c-3.41,6.33-13.11-16.42-13.11-16.42s-9-25.71-1.12-38.76l8.34,2.35v0l5.87,1.66,2.94.83v2C201.3,164.2,201.3,198.28,198.32,203.78Z"/><path class="cls-11" d="M296.68,123.25s14.71,5.22,17.7,25.35,0,53.07,0,53.07l-10,6.46S305.14,142,282,135.56l5-8S292.58,131.45,296.68,123.25Z"/><path class="cls-16" d="M281.3,263.72a1.94,1.94,0,0,1-.79-3.71c26.89-11.9,27.43-28.8,27.43-29a1.94,1.94,0,0,1,3.88.05c0,.8-.61,19.57-29.74,32.46A1.83,1.83,0,0,1,281.3,263.72Z"/><path class="cls-17" d="M259.38,523.66s-38.45,8.91-64.17-6c0,0-2.6-74.85-3.73-94.46-.31-5.76-1.83-15.79-4.18-27.21-3.68-17.94-9.44-39.25-15.85-52.61-.15-.32-.29-.63-.45-.95a51.93,51.93,0,0,0-3.17-5.62l0,0c-2.25-3.43-5.56-5.67-7.87-6.27l.34-.17s.17-.1.53-.28c3.86-2.09,19.77-10.74,26.95-16a120.66,120.66,0,0,1,18.15-10.41l.77-.35s1.14,2.36,2.88,5.87c1,2,2.17,4.32,3.47,6.78h0c4.63,8.86,10.62,19.44,13.6,21.24,5.2,3.15-4.38-16.31,19.93-17.1a.22.22,0,0,1,.1,0c.24,0,.47,0,.73,0,0,0,5.18,22,5.32,52.18Z"/><path class="cls-17" d="M354.38,330.17a6.9,6.9,0,0,0-2.47,1.26,18.88,18.88,0,0,0-4.39,4.95c-9.7,14.62-18.58,51.08-22.12,73.35-.87,5.38-1.42,9.92-1.6,13.13-1.12,19.62-3.73,94.45-3.73,94.45-25.72,14.92-64.16,6-64.16,6l6.64-151.4a272.33,272.33,0,0,1,4.18-46.53c.67-3.64,1.14-5.65,1.14-5.65,22.38.35,15.51,14.4,17.62,15.85.29.2.71.14,1.32-.23,1.54-.93,3.13-4.2,4.59-8.38,2-5.72,5.63-11.62,6.79-17,.91-4.12,1.46-7,1.46-7s19.68,4.81,27.88,10.78S354.38,330.17,354.38,330.17Z"/><path class="cls-7" d="M369.71,512.1a44.07,44.07,0,0,1-8.08,4.78c-8.18,3.82-21.61,7.47-35.48.07,0,0-1.15-50-.77-67.47.29-13.78.12-32.43,0-39.75,0-2,0-3.13,0-3.13s3.09-51.79,21.23-70.85a23.58,23.58,0,0,1,5.32-4.32,16.89,16.89,0,0,1,2.47-1.26,90.7,90.7,0,0,1,12.75,41.08c1.5,24.15,3.38,46.15,2.25,74.48S369.71,512.1,369.71,512.1Z"/><path class="cls-7" d="M190.83,517.27a36.69,36.69,0,0,1-5.44,2.36h0a37.61,37.61,0,0,1-12.52,1.94c-15.67-.2-28.54-9.15-28.54-9.15s1.46-38,.35-66.36.73-50.33,2.23-74.49a91,91,0,0,1,12.6-40.77.89.89,0,0,1,.46-.3,4.63,4.63,0,0,1,1.55.54c2.81,1.39,4.51,3.38,6.6,5.73l0,0a40.48,40.48,0,0,1,3.51,4.59c.14.22.3.44.43.67,9.58,15.08,13.82,39.75,15.54,53.92.81,6.62,1.06,10.94,1.06,10.94s1.09,25.35,1.46,42.88S190.83,517.27,190.83,517.27Z"/><path class="cls-18" d="M218.74,206.39c0,4.59-2.08,8.31-4.64,8.31s-4.64-3.72-4.64-8.31,2.08-8.31,4.64-8.31S218.74,201.8,218.74,206.39Z"/><path class="cls-18" d="M286.59,206.39c0,4.59-2.08,8.31-4.64,8.31s-4.63-3.72-4.63-8.31,2.07-8.31,4.63-8.31S286.59,201.8,286.59,206.39Z"/><path class="cls-19" d="M272.56,259.94c7-3.48,9.48-1,10,2.48s-9.7,7.95-12.55,4.48S272.56,259.94,272.56,259.94Z"/><path class="cls-7" d="M258.69,319.74a377.24,377.24,0,0,0-6.6,64.11c-.52,35,4.88,123.4,3.3,139.06a28.21,28.21,0,0,0,10.35,0S262,417.78,261.63,392.43s5.07-67.09,5.07-67.09S263.87,319.54,258.69,319.74Z"/><path class="cls-20" d="M283.84,367.35h29.29v7.46s-30,.74-29.29,0S283.84,367.35,283.84,367.35Z"/><path class="cls-21" d="M297.05,130.33c-6.78,5.72-11.51,2.84-11.91,2.58a8.06,8.06,0,0,1-3.19,2.64c-8,3.82-14.63,0-18-2.84a9.57,9.57,0,0,1-8.1,5.44c-7.43.79-12-2.17-14-4-.23,2.49-1.87,6-7.57,9.62-2.52,1.62-4.55,2.07-6.38,1.76l.1.16c-8.94,7.92-18.58,10.33-26.72,9.81.06,8.72.06,42.8-2.91,48.3-3.41,6.33-13.11-16.42-13.11-16.42s-8.95-25.71-1.13-38.76c-6.72-7.08,3.35-14.74,3.35-14.74s-11.17-9,0-17.47a36.14,36.14,0,0,1,16.21-6.6c1.48-6.57,8.14-14.51,20.32-15.24,12.68-10,28.51-7,41.76,0h0c10.19-.63,17.84,2.45,23.26,7.06-3.1-2.17-7.89-3.77-14.33-.89l-1,.49,0,0c-.65-.45-15.45-10.88-32.39-1.69-.63.35-1.26.71-1.91,1.12,0,0-16.64-1.26-18.08,11.36h0a20.65,20.65,0,0,0-5.38.21c-6,.95-14.73,4.81-14.88,19.28,0,.32,0,.67,0,1a12.22,12.22,0,0,0-1.21.91,19.47,19.47,0,0,0-7.29,17.6v0c.1.89.16,1.82.18,2.78.11,12.13-7,28.68-.34,31.43,6,2.46,6.19-21.91,6.07-30,0-1.6,0-2.56,0-2.56s14.18-6,21.27-12.34a21.62,21.62,0,0,0,1.92-1.9h0c.53-.06,10.25-1.34,16.83-9.22.38-.44.73-.89,1.09-1.38a33.24,33.24,0,0,0,22.1.29,25.16,25.16,0,0,0,3.39,1c5,1.2,14.41,2.19,20.11-5.09a7.81,7.81,0,0,0,1.89.48c2.76.45,8,.15,11.92-6.81C300.16,123.33,299.45,128.32,297.05,130.33Z"/><path class="cls-19" d="M322.22,197.59a2.36,2.36,0,0,1-.25.87,2.92,2.92,0,0,1-2,1.64,2.76,2.76,0,0,1-1.11.09,3,3,0,0,1-2.6-3.31c0-.06.16-1.32.24-3.47.33-9-.26-33.83-15.56-51-10.78-12.12-26.92-18.27-47.94-18.27s-37.08,6.15-47.74,18.23c-14.83,16.82-15.48,41-15.09,50.43.1,2.5.26,4,.28,4a3,3,0,0,1-2.58,3.33,2.55,2.55,0,0,1-.38,0,3,3,0,0,1-2.28-1.08,2.78,2.78,0,0,1-.67-1.52c0-.24-.16-1.28-.28-3-.61-9-.81-36.55,16.48-56.17,9.32-10.59,22.2-17.07,38.36-19.34a97.82,97.82,0,0,1,13.9-1c22.81,0,40.46,6.82,52.44,20.31C326.17,161.77,322.4,196.13,322.22,197.59Z"/><path class="cls-21" d="M291.63,272.66a220.76,220.76,0,0,1-23.28,15.75c-4.1,2.23-9.7-.74-14.93,0s-10.8,3.35-22.35-1.87-30.82-19.75-32.75-22.73-2.17-45.85,0-60c0,0,1.8,22,2.92,25.36s11.92,14.52,16,16.4,15.27,1.12,21.62-2.23,18.28-4.12,22.73-1.87A60.71,60.71,0,0,0,272.13,245a63,63,0,0,0-12.76,1.44c-15.47,3.29-20.22,5.1-19.18,24.12S253,281,258.68,283.6C264.05,286,284.59,277.75,291.63,272.66Z"/><path class="cls-19" d="M198.42,212.4c-.81,11.74.93,23.3-7.47,23.34a12.81,12.81,0,0,1-2.48-.28c-11.22-2.31-14.18-18.47-9.54-32.66,1.3-4,3.23-6.61,5.38-8.15a9,9,0,0,1,3.53-1.61l0,0a8.57,8.57,0,0,1,2.36-.2c3.75.18,7,2.7,7.53,6A58.2,58.2,0,0,1,198.42,212.4Z"/><path class="cls-19" d="M312.25,235.4c-11.34,1.56-8.38-10.84-8.44-23.65a58.61,58.61,0,0,1,1.58-13.53c1-4.14,6.31-6.8,11.16-4.81a9.65,9.65,0,0,1,2.72,1.7,12.41,12.41,0,0,1,2.7,3.35,19.6,19.6,0,0,1,1.95,5C327.61,217.92,323.58,233.87,312.25,235.4Z"/><path class="cls-22" d="M312.25,235.4c8.77-12.08,8.57-27.5,7.77-35.3a46.26,46.26,0,0,0-.75-5c2.19-14.71,1.52-33.28-14.79-54.14s-51.43-22.77-51.43-22.77c22.81,0,40.45,6.82,52.44,20.31,20.68,23.26,16.91,57.62,16.74,59.08a2.58,2.58,0,0,1-.26.87,19.24,19.24,0,0,1,1.95,5C327.61,217.92,323.58,233.87,312.25,235.4Z"/><path class="cls-23" d="M187.86,193l0,0a25.56,25.56,0,0,0-2.58,6.09,77.15,77.15,0,0,0-2.78,12.32c-2.11,13.86,8.6,24,8.6,24l-.12.33a13.57,13.57,0,0,1-2.48-.27c-11.22-2.31-14.18-18.48-9.54-32.67,1.3-4,3.23-6.6,5.38-8.14-.61-9-.81-36.55,16.48-56.17,9.32-10.58,22.2-17.07,38.36-19.34C182.81,131.41,187.86,193,187.86,193Z"/><path class="cls-7" d="M298.49,316.88a60,60,0,0,1-5.26,11.61,68.15,68.15,0,0,1-5.92,8.62,48.66,48.66,0,0,1-11.45,10.58,22.39,22.39,0,0,1-6.71-15.3,11.33,11.33,0,0,0-2.42-7,18.36,18.36,0,0,0-8-5.66s18.51-5.21,18.72-16.42l.91-19.72s1.73.71,4.24,2c5.54,2.94,14.8,9,17.09,17.33C300.7,306.75,300.16,311.66,298.49,316.88Z"/><path class="cls-7" d="M246.72,320.07l0,0a.22.22,0,0,0-.1,0c-1.28.36-11.73,3.59-13.74,13.74C230.69,344.66,228,348,228,348S213.74,331.59,207.81,318l-.18-.4c-1.84-4.24-2.82-8.2-2.29-11.3.16-.9.34-1.75.57-2.58a2.21,2.21,0,0,1,.08-.35,27,27,0,0,1,19.4-19.38l.57,5.26.91,8.48s-4.75,7.1,1.2,11.57S246.72,320.07,246.72,320.07Z"/><path class="cls-21" d="M226,289.2s-11.55,3.53-16.4,20a47.1,47.1,0,0,0-1.75,8.76s-25,10.05-36.18,23.44c-.2.21-.37.45-.55.67a2.21,2.21,0,0,0-.08.35c-.06.22-.14.53-.24.95-2.09,8.65-13.64,59.37-10.53,110.25,3.39,55.85,10.39,66.18,24.09,66h.06a36.84,36.84,0,0,1-11.53,1.94c-15.67-.2-28.54-9.15-28.54-9.15s1.46-38,.35-66.36.73-50.33,2.23-74.49a91,91,0,0,1,12.6-40.77.82.82,0,0,1,.45-.3l.34-.18s.17-.1.53-.27c3.86-2.09,19.77-10.75,26.95-16a120.66,120.66,0,0,1,18.15-10.41,2.33,2.33,0,0,1,.08-.36,27,27,0,0,1,19.4-19.38Z"/><path class="cls-24" d="M369.71,512.1a44.07,44.07,0,0,1-8.08,4.78c-4.37-26.62-1-64.09,0-114.13s-14.07-66.37-14.07-66.37c-.32-.22-.62-.44-.93-.63-27.9-19.13-48.77-16-48.77-16a16.94,16.94,0,0,0,.67-2.86,19.22,19.22,0,0,0-.3-6.88c-2.62-12.7-15.63-24.35-15.63-24.35,5.54,2.94,14.8,9,17.09,17.33,0,0,19.67,4.81,27.88,10.79s26.85,16.4,26.85,16.4a90.7,90.7,0,0,1,12.75,41.08c1.5,24.15,3.37,46.15,2.25,74.48S369.71,512.1,369.71,512.1Z"/></g></svg>