<?xml version="1.0" encoding="utf-8"?>
<!-- Generator: Adobe Illustrator 24.2.3, SVG Export Plug-In . SVG Version: 6.00 Build 0)  -->
<svg version="1.1" id="Layer_1" xmlns="http://www.w3.org/2000/svg" xmlns:xlink="http://www.w3.org/1999/xlink" x="0px" y="0px"
	 viewBox="0 0 3710 3710" style="enable-background:new 0 0 3710 3710;" xml:space="preserve">
<style type="text/css">
	.st0{fill:url(#SVGID_1_);}
	.st1{fill:url(#SVGID_2_);}
	.st2{fill:url(#SVGID_3_);}
	.st3{fill:url(#SVGID_4_);}
	.st4{fill:url(#SVGID_5_);}
	.st5{fill:url(#SVGID_6_);}
	.st6{fill:url(#SVGID_7_);}
	.st7{fill:url(#SVGID_8_);}
	.st8{fill:#F79E6D;}
	.st9{fill:url(#SVGID_9_);}
	.st10{fill:url(#SVGID_10_);}
	.st11{fill:url(#SVGID_11_);}
	.st12{fill:url(#SVGID_12_);}
	.st13{fill:url(#SVGID_13_);}
	.st14{fill:url(#SVGID_14_);}
	.st15{fill:url(#SVGID_15_);}
	.st16{fill:url(#SVGID_16_);}
	.st17{fill:url(#SVGID_17_);}
	.st18{fill:url(#SVGID_18_);}
	.st19{fill:#91B3FA;}
	.st20{fill:url(#SVGID_19_);}
	.st21{fill:url(#SVGID_20_);}
	.st22{fill:url(#SVGID_21_);}
	.st23{fill:url(#SVGID_22_);}
	.st24{fill:url(#SVGID_23_);}
	.st25{fill:url(#SVGID_24_);}
	.st26{fill:url(#SVGID_25_);}
	.st27{opacity:0.36;fill:#FFFFFF;enable-background:new    ;}
	.st28{fill:#BDD0FB;}
	.st29{fill:url(#SVGID_26_);}
</style>
<g id="Illustration">
	<g>
		
			<linearGradient id="SVGID_1_" gradientUnits="userSpaceOnUse" x1="3566.6904" y1="-369.2831" x2="1081.6295" y2="2717.0056" gradientTransform="matrix(1 0 0 -1 0 3710)">
			<stop  offset="0" style="stop-color:#DAE3FE"/>
			<stop  offset="1" style="stop-color:#E9EFFD"/>
		</linearGradient>
		<path class="st0" d="M2883,2862.2c-57.1,60.1-111.1,98.8-153.8,129.5c-501.6,359.9-1095.1,255-1221.3,229.4
			c-186.3-37.8-546.3-111-806.6-417.1c-393.8-463.1-332.5-1192.8-27-1674.5c55.9-88.1,351-577.1,951-655.5
			c363.1-47.5,786.3,48.3,1092.8,305C3361.4,1317.9,3315.6,2406.8,2883,2862.2z"/>
		
			<linearGradient id="SVGID_2_" gradientUnits="userSpaceOnUse" x1="2395.6277" y1="3256.1099" x2="2037.0863" y2="1986.1333" gradientTransform="matrix(0.9931 0.1176 0.1176 -0.9931 -211.5645 3432.4365)">
			<stop  offset="0" style="stop-color:#E1473D"/>
			<stop  offset="1" style="stop-color:#E9605A"/>
		</linearGradient>
		<path class="st1" d="M2822,1630.2c-25.7,93.8-372.4,49.3-728.2-80.1c-438.7-159.5-579-351.6-550.8-444.7
			c12.8-42.1,352.4-32.9,696.9,124.1S2839,1567.9,2822,1630.2z"/>
		
			<linearGradient id="SVGID_3_" gradientUnits="userSpaceOnUse" x1="5016.9404" y1="5855.0093" x2="1600.3103" y2="231.8159" gradientTransform="matrix(1 0 0 -1 0 3710)">
			<stop  offset="0" style="stop-color:#FF928E"/>
			<stop  offset="1" style="stop-color:#FE7062"/>
		</linearGradient>
		<path class="st2" d="M2602.9,1298.2c216.9-178.8,436.5-246.1,636.8-233.4l0,245.1c-133.6-85.4-359.7,8.7-604.3,69.1L2602.9,1298.2
			z"/>
		<g>
			
				<linearGradient id="SVGID_4_" gradientUnits="userSpaceOnUse" x1="4454.0708" y1="6188.208" x2="1042.771" y2="573.7873" gradientTransform="matrix(1 0 0 -1 0 3710)">
				<stop  offset="0" style="stop-color:#FF928E"/>
				<stop  offset="1" style="stop-color:#FE7062"/>
			</linearGradient>
			<path class="st3" d="M1984.3,1635.8C-171.1,2226,522,3757.8,2108.1,2666l-9.6-27.9c-1473.6,844.2-1981.5-239.3-92.7-913.9
				L1984.3,1635.8z"/>
			
				<linearGradient id="SVGID_5_" gradientUnits="userSpaceOnUse" x1="4953.8105" y1="5893.3623" x2="1537.1718" y2="270.1547" gradientTransform="matrix(1 0 0 -1 0 3710)">
				<stop  offset="0" style="stop-color:#FF928E"/>
				<stop  offset="1" style="stop-color:#FE7062"/>
			</linearGradient>
			<path class="st4" d="M1890.7,2667.2c48.3,39.7,79.2,76.8,100.9,165.2c0.6,2.4,3.8,2.9,5.1,0.8c40.3-67.9,93.5-126.7,145.1-193.3
				c3.7-4.8-0.4-11.6-6.3-10.6c-88.6,14.8-167.6,35.5-242.9,33C1889.9,2662.2,1888.7,2665.5,1890.7,2667.2z"/>
		</g>
		<g>
			
				<linearGradient id="SVGID_6_" gradientUnits="userSpaceOnUse" x1="1432.3546" y1="1599.3717" x2="918.9194" y2="1111.3539" gradientTransform="matrix(1 0 0 -1 0 3710)">
				<stop  offset="0" style="stop-color:#4F52FF"/>
				<stop  offset="1" style="stop-color:#4042E2"/>
			</linearGradient>
			<path class="st5" d="M1364,2033.7l-77.6,119.4c36.1,70.3,76.2,109.2,116.3,127.6c7.2-43.8,32.8-80.2,51.5-101.8
				C1382.7,2138.2,1364,2033.7,1364,2033.7z"/>
			
				<linearGradient id="SVGID_7_" gradientUnits="userSpaceOnUse" x1="1688.7036" y1="1574.1083" x2="1105.6533" y2="1291.6619" gradientTransform="matrix(1 0 0 -1 0 3710)">
				<stop  offset="0" style="stop-color:#FEBBBA"/>
				<stop  offset="1" style="stop-color:#FF928E"/>
			</linearGradient>
			<path class="st6" d="M1630.6,2157.5c-79.5,47-136.2,44.3-176.4,21.4c-18.8,21.6-44.4,58-51.5,101.8c127.5,58.7,255.2-89,255.2-89
				L1630.6,2157.5z"/>
			
				<linearGradient id="SVGID_8_" gradientUnits="userSpaceOnUse" x1="1691.4847" y1="1568.3677" x2="1108.4341" y2="1285.9209" gradientTransform="matrix(1 0 0 -1 0 3710)">
				<stop  offset="0" style="stop-color:#FEBBBA"/>
				<stop  offset="1" style="stop-color:#FF928E"/>
			</linearGradient>
			<path class="st7" d="M1634.9,2177.9c0,0-21.4-37.4,9.4-66.1c0,0,9.9-11.3,20.9,5.3c0,0,33.2-30.1,42.3-18
				c9.1,12.1,33.1,42.2,9.6,76.5C1693.3,2210.3,1645.4,2194.8,1634.9,2177.9z"/>
			<path class="st8" d="M1667.6,2157.4c-3.2,0-6.6-0.6-9.7-2.4c-3-1.8-6.7-5.4-7.7-12.9c-0.3-2.3,1.3-4.3,3.6-4.6
				c2.3-0.3,4.3,1.3,4.6,3.6c0.4,3.4,1.6,5.7,3.7,6.9c2.8,1.7,7,1.4,10.1,0.7l-7.4-23.6c-0.7-2.2,0.5-4.5,2.7-5.2
				c2.2-0.7,4.5,0.5,5.2,2.7l8.7,27.6c0.7,2.1-0.4,4.3-2.4,5.1C1678.1,2155.5,1673.2,2157.4,1667.6,2157.4z"/>
			
				<linearGradient id="SVGID_9_" gradientUnits="userSpaceOnUse" x1="496.9008" y1="650.851" x2="588.18" y2="650.851" gradientTransform="matrix(1 0 0 -1 0 3710)">
				<stop  offset="0" style="stop-color:#4F52FF"/>
				<stop  offset="1" style="stop-color:#4042E2"/>
			</linearGradient>
			<path class="st9" d="M506.1,2959.3c-6.9,4.2-10.4,12.9-8.8,21.5c6.5,33.8,27.8,122.9,79.5,175.7c3.4,3.5,8.4,3.2,11.4,0
				c-13.1-13.6-29.3-37-48.3-76.6C510.7,3019.1,505.3,2981.5,506.1,2959.3z"/>
			
				<linearGradient id="SVGID_10_" gradientUnits="userSpaceOnUse" x1="506.0156" y1="656.5901" x2="603.1483" y2="656.5901" gradientTransform="matrix(1 0 0 -1 0 3710)">
				<stop  offset="0" style="stop-color:#09005D"/>
				<stop  offset="1" style="stop-color:#1A0F91"/>
			</linearGradient>
			<path class="st10" d="M572.9,2958c0,0-33.3-18.1-66.6,1.1c-0.1,0-0.2,0.1-0.2,0.2c-0.8,22.2,4.6,59.8,33.8,120.7
				c19,39.6,35.2,62.9,48.3,76.6c1-1,1.7-2.3,2.2-3.8C600.1,3119,620.6,3025.2,572.9,2958z"/>
			
				<linearGradient id="SVGID_11_" gradientUnits="userSpaceOnUse" x1="554.5075" y1="754.8087" x2="625.9353" y2="754.8087" gradientTransform="matrix(1 0 0 -1 0 3710)">
				<stop  offset="0" style="stop-color:#FEBBBA"/>
				<stop  offset="1" style="stop-color:#FF928E"/>
			</linearGradient>
			<path class="st11" d="M621,2960.1l-30.2,29c-5.3,5.1-13.5,6-19.7,1.9c-5.4-3.6-11.4-9.4-15.4-18.9c-2.4-5.7-1.2-12.3,2.9-16.9
				l30.2-33.2c7.2-7.9,20-6.6,25.5,2.6l9.4,16C627.5,2946.9,626.4,2955,621,2960.1z"/>
			
				<linearGradient id="SVGID_12_" gradientUnits="userSpaceOnUse" x1="1597.793" y1="978.5838" x2="1734.6266" y2="978.5838" gradientTransform="matrix(1 0 0 -1 0 3710)">
				<stop  offset="0" style="stop-color:#4F52FF"/>
				<stop  offset="1" style="stop-color:#4042E2"/>
			</linearGradient>
			<path class="st12" d="M1597.8,2814.7c7,3.9,16.4,2.7,23-3c26.1-22.3,93.1-84.9,113.5-155.9c1.3-4.7-1.4-8.9-5.6-9.9
				c-5.4,18.1-17.6,43.8-42.7,79.9C1647.5,2781.1,1617.5,2804.4,1597.8,2814.7z"/>
			
				<linearGradient id="SVGID_13_" gradientUnits="userSpaceOnUse" x1="1563.689" y1="979.8626" x2="1728.683" y2="979.8626" gradientTransform="matrix(1 0 0 -1 0 3710)">
				<stop  offset="0" style="stop-color:#09005D"/>
				<stop  offset="1" style="stop-color:#1A0F91"/>
			</linearGradient>
			<path class="st13" d="M1563.7,2757.3c0,0,0.7,38,33.8,57.3c0.1,0,0.2,0.1,0.3,0.1c19.7-10.3,49.7-33.5,88.2-89
				c25.1-36.1,37.3-61.7,42.7-79.9c-1.3-0.3-2.8-0.4-4.4,0C1690.2,2654.1,1598.5,2682.6,1563.7,2757.3z"/>
			
				<linearGradient id="SVGID_14_" gradientUnits="userSpaceOnUse" x1="1519.9481" y1="984.6409" x2="1598.4246" y2="984.6409" gradientTransform="matrix(1 0 0 -1 0 3710)">
				<stop  offset="0" style="stop-color:#FEBBBA"/>
				<stop  offset="1" style="stop-color:#FF928E"/>
			</linearGradient>
			<path class="st14" d="M1561.4,2694.4l31.6,27.5c5.6,4.9,7.1,13,3.6,19.5c-3.1,5.7-8.4,12.2-17.5,17c-5.5,2.9-12.1,2.3-17.1-1.4
				l-35.8-27.1c-8.5-6.5-8.4-19.3,0.3-25.6l15-10.8C1547.6,2689.2,1555.8,2689.6,1561.4,2694.4z"/>
			
				<linearGradient id="SVGID_15_" gradientUnits="userSpaceOnUse" x1="1006.3038" y1="1207.093" x2="509.2257" y2="685.1606" gradientTransform="matrix(1 0 0 -1 0 3710)">
				<stop  offset="0" style="stop-color:#09005D"/>
				<stop  offset="1" style="stop-color:#1A0F91"/>
			</linearGradient>
			<path class="st15" d="M927.8,2416c0,0-61.6,209.9-101.5,302.2c0,0-69.6,10.6-112.7,35.8c-43.1,25.2-135.9,164.8-135.9,164.8
				s24.2,46,53.5,53.1l264.3-183.1l210.9-245.3l-10-113.8L927.8,2416z"/>
			
				<linearGradient id="SVGID_16_" gradientUnits="userSpaceOnUse" x1="1625.8076" y1="1391.4681" x2="1316.2627" y2="1197.1553" gradientTransform="matrix(1 0 0 -1 0 3710)">
				<stop  offset="0" style="stop-color:#09005D"/>
				<stop  offset="1" style="stop-color:#1A0F91"/>
			</linearGradient>
			<path class="st16" d="M931.6,2398.9l-18,57.5c0,0,16.5,150.7,206.5,125.3s213.9-56.4,213.9-56.4s-16.5,96.3,191.3,212
				c0,0,31.6-23.8,38.5-50.9l-145.6-240c-20.3-31.5-39-39.8-76-34c-81.8,12.8-234.9,29.5-258,25.5L931.6,2398.9z"/>
			
				<linearGradient id="SVGID_17_" gradientUnits="userSpaceOnUse" x1="1297.9004" y1="1740.8291" x2="784.4664" y2="1252.8129" gradientTransform="matrix(1 0 0 -1 0 3710)">
				<stop  offset="0" style="stop-color:#4F52FF"/>
				<stop  offset="1" style="stop-color:#4042E2"/>
			</linearGradient>
			<path class="st17" d="M1080,1971.4c-55.4,2.8-142.9,29.1-199.4,81.2c17.4,19.2,44.1,50.4,64,81.2c17.8-16.7,43.4-30.6,79.4-39.6
				c-31.1,116.3-67.9,227.1-112.7,330.2c-2.8,6.4,0.4,13.9,7,16.2c34.7,12.1,137,40.9,219-5.5l181.9-260.5
				c19.6-28,32.4-60.1,37.6-93.9l7.2-47C1364,2033.7,1200.6,1965.3,1080,1971.4z"/>
			
				<linearGradient id="SVGID_18_" gradientUnits="userSpaceOnUse" x1="965.1253" y1="1383.4507" x2="618.1198" y2="1996.7634" gradientTransform="matrix(1 0 0 -1 0 3710)">
				<stop  offset="0" style="stop-color:#FEBBBA"/>
				<stop  offset="1" style="stop-color:#FF928E"/>
			</linearGradient>
			<path class="st18" d="M980.8,2365.6c-7.9-17.5-35-33.8-47.9-40.8c-11.2-23.2-56.1-127.4,11.7-191c-19.9-30.8-46.7-62-64-81.2
				c-65.2,60.1-89.1,154.4,25.3,286.5c-6.2,32.5,14.1,70.4,25.1,75.7C936,2417.2,991.3,2388.8,980.8,2365.6z"/>
			<path class="st19" d="M1034.5,2094.3c-1.9,0-3.6-1.3-4-3.3c-0.5-2.2,0.9-4.4,3.2-4.9l50.6-10.9c2.2-0.5,4.4,0.9,4.9,3.2
				c0.5,2.2-0.9,4.4-3.2,4.9l-50.6,10.9C1035.1,2094.2,1034.8,2094.3,1034.5,2094.3z"/>
			
				<linearGradient id="SVGID_19_" gradientUnits="userSpaceOnUse" x1="1184.4852" y1="1645.9231" x2="1220.7998" y2="1749.4868" gradientTransform="matrix(1 0 0 -1 0 3710)">
				<stop  offset="0" style="stop-color:#FEBBBA"/>
				<stop  offset="1" style="stop-color:#FF928E"/>
			</linearGradient>
			<path class="st20" d="M1202.8,1902.2l-47.5,93c-2.9,5.7-2,12.5,2.2,17.3c11.5,12.8,38.7,33.6,86,18.7c5.2-1.6,9-6.2,9.8-11.6
				l12.4-84.5L1202.8,1902.2z"/>
			<g>
				
					<linearGradient id="SVGID_20_" gradientUnits="userSpaceOnUse" x1="1287.91" y1="1859.4303" x2="1128.5609" y2="1737.5039" gradientTransform="matrix(1 0 0 -1 0 3710)">
					<stop  offset="0" style="stop-color:#FEBBBA"/>
					<stop  offset="1" style="stop-color:#FF928E"/>
				</linearGradient>
				<path class="st21" d="M1282.1,1794.2c0,0,27.9,64,29.7,97.6s9.1,55.4-29.7,62.2s-71.6-12.6-89.3-46.1c0,0-27.8-51.6-21.6-72.7
					C1177.4,1814.1,1282.1,1794.2,1282.1,1794.2z"/>
				
					<linearGradient id="SVGID_21_" gradientUnits="userSpaceOnUse" x1="1175.7354" y1="1955.9695" x2="1324.1439" y2="1764.8938" gradientTransform="matrix(1 0 0 -1 0 3710)">
					<stop  offset="0" style="stop-color:#09005D"/>
					<stop  offset="1" style="stop-color:#1A0F91"/>
				</linearGradient>
				<path class="st22" d="M1206,1883.9l2.2-1c2.8-1.2,4-4.6,2.6-7.3c-5.5-10.6-16.2-34.8-2.4-40.5c17.8-7.3,88.2-21.7,103.4-46.7
					c14.6-24,1.7-55-17.8-63.9c-1.3-0.6-2.8-0.1-3.5,1.1l-1.6,3.1c-1.1,2.1-4.2,1.8-4.9-0.5l0,0c-0.6-2.2-3.5-2.6-4.8-0.7
					c-4.7,7.5-17.3,19.6-51,25.8c-47.9,8.8-79.6,28.2-80.4,61.4c-0.1,2.1-2.3,3.3-4.1,2.2c-3.5-2.2-9.2-3.2-16.8,3.2
					c-13.2,11.1-7.8,39.8,21.1,63.4c1.4,1.1,1.4,3.3-0.1,4.2c-5.2,3.4-13,11.5,7.2,22.3c20.9,11.2,36.5,10.3,42.5,9.3
					c1.5-0.2,2.5-1.7,2.1-3.2l-6.4-29.1c-0.4-1.6,0.9-3.2,2.6-3.2L1206,1883.9L1206,1883.9z"/>
				
					<linearGradient id="SVGID_22_" gradientUnits="userSpaceOnUse" x1="1268.1447" y1="1885.2623" x2="1108.7954" y2="1763.3359" gradientTransform="matrix(1 0 0 -1 0 3710)">
					<stop  offset="0" style="stop-color:#FEBBBA"/>
					<stop  offset="1" style="stop-color:#FF928E"/>
				</linearGradient>
				<path class="st23" d="M1207.2,1890c0,0-10.6-40.9-29-29.4s9.5,45.8,24.3,47.4L1207.2,1890z"/>
			</g>
		</g>
		<g>
			
				<linearGradient id="SVGID_23_" gradientUnits="userSpaceOnUse" x1="2503.5393" y1="1991.5952" x2="2137.5256" y2="659.7139" gradientTransform="matrix(1 0 0 -1 0 3710)">
				<stop  offset="0" style="stop-color:#4F52FF"/>
				<stop  offset="1" style="stop-color:#4042E2"/>
			</linearGradient>
			<circle class="st24" cx="2284.8" cy="2514.4" r="132.6"/>
			<g>
				
					<linearGradient id="SVGID_24_" gradientUnits="userSpaceOnUse" x1="1189.2046" y1="2092.8384" x2="2836.3486" y2="2458.8701" gradientTransform="matrix(1 0 0 -1 0 3710)">
					<stop  offset="0" style="stop-color:#4F52FF"/>
					<stop  offset="1" style="stop-color:#4042E2"/>
				</linearGradient>
				<path class="st25" d="M2953,1050.4c0,252.2-379.8,895.6-577.7,1212.9c-15.4,24.6-48.4,39.6-109.7,39.6c-29,0-17.6-15-33-39.6
					c-197.9-317.4-577.7-960.7-577.7-1212.9c0-328.8,290.6-595.4,649-595.4C2662.4,455,2953,721.6,2953,1050.4z"/>
				
					<linearGradient id="SVGID_25_" gradientUnits="userSpaceOnUse" x1="2446.032" y1="2944.9646" x2="1225.7166" y2="788.3103" gradientTransform="matrix(1 0 0 -1 0 3710)">
					<stop  offset="0" style="stop-color:#4F52FF"/>
					<stop  offset="1" style="stop-color:#4042E2"/>
				</linearGradient>
				<path class="st26" d="M2914.6,1050.4c0,252.2-379.8,895.6-577.7,1212.9c-15.4,24.6-42.3,39.6-71.3,39.6s-55.9-15-71.3-39.6
					c-197.9-317.4-577.7-960.7-577.7-1212.9c0-328.8,290.6-595.4,649-595.4C2624,455,2914.6,721.6,2914.6,1050.4z"/>
				
					<ellipse transform="matrix(0.7071 -0.7071 0.7071 0.7071 -93.9135 1928.8798)" class="st19" cx="2281.4" cy="1077.8" rx="396.1" ry="396.1"/>
				<circle class="st27" cx="2243" cy="1038.9" r="288"/>
				<path class="st28" d="M2265.6,1580.2c-265.5,0-481.4-216-481.4-481.4c0-4.8,3.9-8.6,8.6-8.6s8.6,3.9,8.6,8.6
					c0,256,208.2,464.2,464.2,464.2s464.2-208.2,464.2-464.2s-208.2-464.2-464.2-464.2c-148,0-283.7,68.1-372.3,186.9
					c-2.8,3.8-8.3,4.6-12.1,1.8c-3.8-2.8-4.6-8.3-1.8-12.1c91.9-123.2,232.6-193.9,386.2-193.9c265.5,0,481.4,216,481.4,481.4
					C2747,1364.2,2531.1,1580.2,2265.6,1580.2z"/>
			</g>
		</g>
		
			<linearGradient id="SVGID_26_" gradientUnits="userSpaceOnUse" x1="4511.5566" y1="6162.0835" x2="1094.916" y2="538.8725" gradientTransform="matrix(1 0 0 -1 0 3710)">
			<stop  offset="0" style="stop-color:#FF928E"/>
			<stop  offset="1" style="stop-color:#FE7062"/>
		</linearGradient>
		<path class="st29" d="M1547.2,1100.1c-19.8,15.3-30.7,40.5-37.4,72.8c-10.4,50.4,2.1,102.7,31.8,144.6
			c218.2,307.3,740.3,468.7,1203.3,413c36.6-4.4,65.9-32.3,71.8-68.7l7.1-43.8c2-12.3-8.1-23.2-20.5-22.1
			c-204.8,18.6-406.1-0.4-607.2-39.3c-468.9-90.8-663.7-391.5-643.9-437c2.5-5.7,5.6-11.8,10.7-15.4c13.2-9.3,36.2-17.5,55.5-20.6
			C1591.4,1082.5,1562.2,1088.5,1547.2,1100.1z"/>
	</g>
</g>
</svg>
