<?xml version="1.0" encoding="utf-8"?>
<!-- Generator: Adobe Illustrator 24.2.3, SVG Export Plug-In . SVG Version: 6.00 Build 0)  -->
<svg version="1.1" id="Layer_1" xmlns="http://www.w3.org/2000/svg" xmlns:xlink="http://www.w3.org/1999/xlink" x="0px" y="0px"
	 viewBox="0 0 2500 2500" style="enable-background:new 0 0 2500 2500;" xml:space="preserve">
<style type="text/css">
	.st0{fill:#F2E6DC;}
	.st1{fill:#FFFFFF;}
	.st2{fill:#F7F1EB;}
	.st3{fill:#8B865C;}
	.st4{fill:#E6D0BE;}
	.st5{fill:#D3BBA3;}
	.st6{fill:#84524D;}
	.st7{fill:#363E44;}
	.st8{fill:#EFBC73;}
	.st9{fill:#40484C;}
</style>
<g id="Illustration">
	<g id="Responsive_web_design_1_">
		<circle class="st0" cx="1247.2" cy="1250" r="915"/>
		<g>
			<rect x="610.7" y="465.1" class="st1" width="1409.2" height="999.3"/>
			<rect x="654.9" y="509.3" class="st2" width="1320.8" height="825.2"/>
			<path class="st1" d="M1167,1485.6h41.7l0,0c0,31.3,25.4,56.7,56.7,56.7h99.9c31.3,0,56.7-25.4,56.7-56.7l0,0h41.7l41.7,221.7
				v18.5h-380.1v-18.5L1167,1485.6z"/>
			<path class="st1" d="M1505.4,1751.2h-380.1c-1.2,0-2.2-1-2.2-2.2c0-1.2,1-2.2,2.2-2.2h380.1c1.2,0,2.2,1,2.2,2.2
				C1507.6,1750.2,1506.6,1751.2,1505.4,1751.2z"/>
			<g>
				<rect x="703.5" y="930.2" class="st0" width="856.5" height="343.9"/>
				<rect x="1609.6" y="930.2" class="st0" width="317.5" height="343.9"/>
				<g>
					<path class="st3" d="M1927.1,892.7H703.5c-1.2,0-2.2-1-2.2-2.2V569.7c0-1.2,1-2.2,2.2-2.2h1223.6c1.2,0,2.2,1,2.2,2.2v320.8
						C1929.3,891.7,1928.4,892.7,1927.1,892.7z M705.7,888.3h1219.2V571.9H705.7V888.3z"/>
					<g>
						<path class="st3" d="M1864.8,636.3h-273.2c-1.2,0-2.2-1-2.2-2.2s1-2.2,2.2-2.2h273.2c1.2,0,2.2,1,2.2,2.2
							S1866,636.3,1864.8,636.3z"/>
						<path class="st3" d="M1864.8,679.9h-319.3c-1.2,0-2.2-1-2.2-2.2s1-2.2,2.2-2.2h319.3c1.2,0,2.2,1,2.2,2.2
							S1866,679.9,1864.8,679.9z"/>
						<path class="st3" d="M1864.8,723.4h-319.3c-1.2,0-2.2-1-2.2-2.2s1-2.2,2.2-2.2h319.3c1.2,0,2.2,1,2.2,2.2
							S1866,723.4,1864.8,723.4z"/>
					</g>
				</g>
			</g>
			<ellipse class="st1" cx="1768.3" cy="1102.1" rx="36.3" ry="36.3"/>
		</g>
		<g>
			<g>
				<path class="st4" d="M2129.3,1995.5h-524.4V1006H1723l0,0c10,32.1,38.3,53.8,70.2,53.8h147.7c31.8,0,60.1-21.7,70.2-53.8l0-0.1
					h118.2V1995.5z"/>
				<path class="st5" d="M2109.9,2056.1h-489.3c-31.9,0-57.9-26-57.9-57.9V993.9c0-31.9,26-57.9,57.9-57.9h489.3
					c31.9,0,57.9,26,57.9,57.9v1004.3C2167.8,2030.1,2141.8,2056.1,2109.9,2056.1z M1620.6,940.4c-29.5,0-53.5,24-53.5,53.5v1004.3
					c0,29.5,24,53.5,53.5,53.5h489.3c29.5,0,53.5-24,53.5-53.5V993.9c0-29.5-24-53.5-53.5-53.5L1620.6,940.4L1620.6,940.4z"/>
			</g>
			<g>
				<g>
					<g>
						<path class="st3" d="M2102.6,1709.4h-474.7c-1.2,0-2.2-1-2.2-2.2v-368.1c0-1.2,1-2.2,2.2-2.2h474.7c1.2,0,2.2,1,2.2,2.2v368.1
							C2104.8,1708.4,2103.8,1709.4,2102.6,1709.4z M1630.1,1705h470.3v-363.7h-470.3V1705z"/>
					</g>
				</g>
				<g>
					<g>
						<rect x="1627.9" y="1097.6" class="st0" width="474.7" height="214.9"/>
					</g>
				</g>
				<g>
					<g>
						<rect x="1627.9" y="1733.7" class="st0" width="474.7" height="214.9"/>
					</g>
				</g>
				<g>
					<path class="st3" d="M2054.8,1393.5h-214c-1.2,0-2.2-1-2.2-2.2c0-1.2,1-2.2,2.2-2.2h214c1.2,0,2.2,1,2.2,2.2
						C2057,1392.6,2056,1393.5,2054.8,1393.5z"/>
					<path class="st3" d="M2054.8,1437.1h-250.1c-1.2,0-2.2-1-2.2-2.2c0-1.2,1-2.2,2.2-2.2h250.1c1.2,0,2.2,1,2.2,2.2
						C2057,1436.1,2056,1437.1,2054.8,1437.1z"/>
					<path class="st3" d="M2054.8,1480.6h-250.1c-1.2,0-2.2-1-2.2-2.2c0-1.2,1-2.2,2.2-2.2h250.1c1.2,0,2.2,1,2.2,2.2
						C2057,1479.6,2056,1480.6,2054.8,1480.6z"/>
				</g>
			</g>
		</g>
		<g>
			<g>
				<path class="st6" d="M1049.3,1191.8c-21.8-45.8-38.5-70.5-67.7-80.7c-39.2-13.7-77.1,11.8-81,14.6c-2.5,1.7-39.6,24.4-41.7,68
					c-1.5,31.4,9.1,62.7,29.2,85.9c13.8,16,16,39,5.2,57.2l-68.1,114.4c3.1,30.4,30.3,52.6,60.7,49.5l6.9-0.7
					c30.4-3.1,91.2-26.5,88.1-57l53.5-121.8c19.2-3.6,33.9-10.7,39-21.1C1082.7,1281.5,1074.9,1245.7,1049.3,1191.8z"/>
				<path class="st7" d="M1035.3,1321.9c-0.1,0-0.3,0-0.4,0l-23.5-4.3c-1.2-0.2-2-1.4-1.8-2.6s1.4-2,2.6-1.8l23.5,4.3
					c1.2,0.2,2,1.4,1.8,2.6C1037.2,1321.1,1036.3,1321.9,1035.3,1321.9z"/>
				<path class="st7" d="M996.6,1255.7c-0.5,0-1-0.2-1.5-0.6c-2.9-2.6-5.6-5-8.3-7.6c-2.2-2.1-4.5-4.2-7.1-6.5
					c-0.9-0.8-1-2.2-0.2-3.1c0.8-0.9,2.2-1,3.1-0.2c2.6,2.4,4.9,4.5,7.2,6.6c2.7,2.5,5.3,4.9,8.2,7.5c0.9,0.8,1,2.2,0.2,3.1
					C997.8,1255.5,997.2,1255.7,996.6,1255.7z"/>
				<path class="st7" d="M801.8,1220.5c-8-24.1,5-50.1,29.1-58.2c0,0,0.1,0,0.1,0c-3.8-4-6.8-8.9-8.7-14.5
					c-6.9-20.8,4.3-43.2,25.1-50.1c4.3-1.4,8.7-2,13.1-2c-5.4-20.1,5.7-41.2,25.7-47.9c11.3-3.8,23.1-2.1,32.6,3.5
					c3.8-14.7,14.7-27.3,30.1-32.4c23.4-7.8,48.6,4.2,57.5,27c1.1-0.5,2.2-0.9,3.3-1.3c20.8-6.9,43.2,4.3,50.1,25.1
					c6.9,20.8-4.3,43.2-25.1,50.1c-0.6,0.2-1.2,0.3-1.8,0.5c9.3,37.6-28.2,54.5-30.3,55.9c9.9,15.4,19.7,30.8,29.6,46.1
					c-5.8,3.9-12.6,9-18.5,12.9c-9.5-16.5-18.6-21.1-29.1-19.6c-16.4,2.3-26.3,21.2-22.8,36.8c3.2,14.3,12.9,27.2,28.6,30.7
					c-15.6,5.5-32.1,10.7-49.4,15.6c-9,2.6-17.9,4.9-26.7,7.1c-6.3-1.7-46.9-13.5-67.3-53.9C827.3,1252.8,808.4,1240.4,801.8,1220.5
					z"/>
			</g>
			<g>
				<path class="st8" d="M635.9,1225.8c0,0,88.7,51.9,160.6,85.7c71,33.4,380.3,211.1,380.3,211.1l-85.9,290.9l-127.5,306.6
					c-249.1-80.8-457.1-263.7-552.1-491.7l97.3-174.5L635.9,1225.8z"/>
				<g>
					<g>
						
							<rect x="1161.4" y="1513.7" transform="matrix(0.2451 -0.9695 0.9695 0.2451 -561.4577 2712.7871)" class="st7" width="599.8" height="406.4"/>
					</g>
					<ellipse class="st9" cx="1461.3" cy="1716.9" rx="45.9" ry="45.9"/>
				</g>
				<g>
					<path class="st6" d="M1719.7,1809.5c-2.8-7.3-10.1-12.4-18.6-13.5c0.8-0.7,11.1-10,9.2-23.8c-1.5-10.5-9.4-19.3-20.1-22.1
						c4.8-9.1,5.3-19.3,0.7-26.6c-14-21.9-88.7,8.6-124.1,21.9c-15.6,5.9-148.6,58.1-240.9,94.4l-9.5-44.1
						c-92,31.9-198.8,60.5-198.8,60.5c19,112.3,62.1,166.3,62.1,166.3h0c41.4,47.9,95.9,45.4,123.2,37.5
						c70.5-20.5,133-44.6,266.8-111.2c57-28.4,103-54.9,134.5-66.8c9.8-6.4,15-17.3,13.2-27.7c-1.7-9.3-8.4-14.7-10.4-16.1
						C1718.6,1832.5,1723.6,1819.5,1719.7,1809.5z"/>
					<path class="st7" d="M1267.9,1863.9c-0.9,0-1.7-0.6-2.1-1.4c-0.4-1.1,0.2-2.4,1.3-2.8c16.8-6.2,53.9-20.3,89.7-33.9
						c35.8-13.6,72.9-27.7,89.8-33.9c1.1-0.4,2.4,0.2,2.8,1.3s-0.2,2.4-1.3,2.8c-16.8,6.2-53.9,20.3-89.7,33.9
						c-35.8,13.6-72.9,27.7-89.8,33.9C1268.4,1863.9,1268.1,1863.9,1267.9,1863.9z"/>
					<path class="st7" d="M1645.1,1755.7c-0.9,0-1.8-0.6-2.1-1.6l-4.8-15.9c-0.4-1.2,0.3-2.4,1.5-2.8c1.2-0.4,2.4,0.3,2.8,1.5
						l4.8,15.9c0.4,1.2-0.3,2.4-1.5,2.8C1645.5,1755.7,1645.3,1755.7,1645.1,1755.7z"/>
					<path class="st7" d="M1657.4,1796.1c-0.9,0-1.8-0.6-2.1-1.6l-4.8-15.9c-0.4-1.2,0.3-2.4,1.5-2.8c1.2-0.4,2.4,0.3,2.8,1.5
						l4.8,15.9c0.4,1.2-0.3,2.4-1.5,2.8C1657.8,1796.1,1657.6,1796.1,1657.4,1796.1z"/>
					<path class="st7" d="M1670.4,1837.2c-0.9,0-1.8-0.6-2.1-1.6l-4.8-15.9c-0.4-1.2,0.3-2.4,1.5-2.8c1.2-0.4,2.4,0.3,2.8,1.5
						l4.8,15.9c0.4,1.2-0.3,2.4-1.5,2.8C1670.8,1837.1,1670.6,1837.2,1670.4,1837.2z"/>
					<path class="st7" d="M1681.4,1874.6c-0.9,0-1.8-0.6-2.1-1.6l-4.8-15.9c-0.4-1.2,0.3-2.4,1.5-2.8c1.2-0.4,2.4,0.3,2.8,1.5
						l4.8,15.9c0.4,1.2-0.3,2.4-1.5,2.7C1681.8,1874.6,1681.6,1874.6,1681.4,1874.6z"/>
				</g>
				<g>
					<path class="st8" d="M1081.3,1901.9l276.3-90.3c0,0-13-205.4-229.5-318c-137.6-71.6-108.7,327.1-108.7,327.1L1081.3,1901.9z"/>
					<path class="st7" d="M1057.9,1858.7c-0.8,0-1.5-0.4-1.9-1.1l-40.2-70.5c-0.6-1.1-0.2-2.4,0.8-3c1.1-0.6,2.4-0.2,3,0.8
						l40.2,70.5c0.6,1.1,0.2,2.4-0.8,3C1058.7,1858.6,1058.3,1858.7,1057.9,1858.7z"/>
				</g>
				<g>
					<g>
						<g>
							<g>
								<path class="st6" d="M675.8,1064.4c0,0,125.9-102.1,211.5-126.5c171-48.8,205.2-114.3,189.8-128.1c-16.7-15-41.3,11-59.9,22
									c1-3.6,1.8-14.6-6.2-22.3c-11.8-11.4-23.6-5.8-24.9-5.8c0.4-1.2,4.8-14.1-1.9-22.9c-7.6-10-18-12.5-27.2-10.7
									c1-3,3.5-14.4-3.2-22.7c-6.9-8.6-18.9-10.3-29.3-7.7c-49.8,12.5-87.5,19-114,30.5c-52.1,22.8-229.8,99.4-294.8,152.8
									c-43.3,44.9,2.5,124.4,71,150.5C629.9,1090.1,675.8,1064.4,675.8,1064.4z"/>
								<g>
									<path class="st7" d="M923.1,776.1c-0.6,0-1.3-0.3-1.7-0.8l-11.2-13.8c-0.8-0.9-0.6-2.3,0.3-3.1c0.9-0.8,2.3-0.6,3.1,0.3
										l11.2,13.8c0.8,0.9,0.6,2.3-0.3,3.1C924.1,775.9,923.6,776.1,923.1,776.1z"/>
									<path class="st7" d="M951.5,811.3c-0.6,0-1.2-0.3-1.7-0.8l-13.1-15.3c-0.8-0.9-0.7-2.3,0.2-3.1c0.9-0.8,2.3-0.7,3.1,0.2
										l13.1,15.3c0.8,0.9,0.7,2.3-0.2,3.1C952.5,811.1,952,811.3,951.5,811.3z"/>
									<path class="st7" d="M980.2,844.3c-0.6,0-1.3-0.3-1.7-0.8c-2.1-2.6-4-4.9-5.9-7.2c-1.9-2.3-3.8-4.6-5.9-7.2
										c-0.8-0.9-0.6-2.3,0.3-3.1c0.9-0.8,2.3-0.6,3.1,0.3c2.1,2.6,4,4.9,5.9,7.2c1.9,2.3,3.8,4.6,5.9,7.2
										c0.8,0.9,0.6,2.3-0.3,3.1C981.2,844.1,980.7,844.3,980.2,844.3z"/>
									<path class="st7" d="M1000.7,874.2c-0.7,0-1.4-0.3-1.8-0.9l-10.1-14.4c-0.7-1-0.5-2.4,0.5-3.1c1-0.7,2.4-0.5,3.1,0.5
										l10.1,14.4c0.7,1,0.5,2.4-0.5,3.1C1001.6,874.1,1001.2,874.2,1000.7,874.2z"/>
								</g>
							</g>
						</g>
						<path class="st6" d="M692.1,1022.1v243.5l-224.8,113.9c-4.2-144.5-2.6-304.1,32.9-427.3L692.1,1022.1z"/>
					</g>
					<path class="st8" d="M472.3,1523c-25-87.5-25-257.4-25-257.4l256.5-91l26.4,103.5L472.3,1523z"/>
					<path class="st7" d="M472.3,1525.2c-0.5,0-0.9-0.1-1.3-0.4c-1-0.7-1.2-2.1-0.5-3.1l79.3-107.1c0.7-1,2.1-1.2,3.1-0.5
						c1,0.7,1.2,2.1,0.5,3.1l-79.3,107.1C473.7,1524.9,473,1525.2,472.3,1525.2z"/>
				</g>
			</g>
		</g>
	</g>
</g>
</svg>
