<svg id="Layer_1" data-name="Layer 1" xmlns="http://www.w3.org/2000/svg" viewBox="0 0 500 500"><defs><style>.cls-1{fill:#fff;}.cls-2,.cls-5{fill:#7891e2;}.cls-3{fill:#fccb7e;}.cls-4{fill:#a5d2cf;}.cls-5{opacity:0.29;isolation:isolate;}.cls-6{fill:#ffa399;}.cls-7{fill:#472439;}.cls-8{fill:none;stroke:#472439;stroke-linecap:round;stroke-linejoin:round;stroke-width:0.5px;}.cls-9{fill:#693e57;}.cls-10{fill:#ff7d69;}</style></defs><path class="cls-1" d="M229.4,477.47c-29.92,0-55.1-9.64-70.91-27.13-4.86-5.38-8.86-12.57-11.93-21.39a11.88,11.88,0,0,1-1.76-4.11c-.78-3.59-1.56-7.2-2.28-10.83,0-.13-.05-.26-.08-.38-1.85-1.11-3.8-2.31-5.86-3.62-2.31-1.48-4.68-3.08-7.27-4.91l-1.05-.73c-2.1-1.49-4.25-3.08-6.55-4.86l-1.41-1.09c-2.08-1.63-4.15-3.32-6.15-5l-1.39-1.19c-2.21-1.91-4.16-3.66-6-5.35l-1.09-1c-1.85-1.74-3.66-3.52-5.39-5.27l-.87-.87c-1.71-1.76-3.45-3.61-5.48-5.85l-1.32-1.46c-1.63-1.85-3.32-3.82-5-5.88l-1.32-1.61c-1.69-2.1-3.29-4.16-4.79-6.16l-1.12-1.52c-1.77-2.42-3.3-4.58-4.68-6.61l-.63-1c-1.41-2.1-2.84-4.33-4.23-6.59L70.17,342c-1.34-2.21-2.7-4.57-4.17-7.2l-.74-1.34c-1.32-2.42-2.62-4.92-3.86-7.43l-.59-1.21c-1.31-2.68-2.54-5.35-3.66-7.92l-.18-.41a209.74,209.74,0,0,1-11.85-35.94l-.33-1.45c-.68-3.06-1.25-5.81-1.72-8.39a213.44,213.44,0,0,1-3.39-37.82,208.69,208.69,0,0,1,2.66-33.32c.08-.59.17-1.16.27-1.74l.1-.57a206.56,206.56,0,0,1,16-51.85c2.42-5.27,5.09-10.5,8-15.63a11.57,11.57,0,0,1,.74-15.48c.35-.35.72-.7,1.1-1,4.25-4,9.76-8.55,16.74-11.07a210.07,210.07,0,0,1,255.8-58.91c1.09.52,2.26,1.09,3.42,1.67l1.24.65c1.35.69,2.73,1.41,4.08,2.13.29.15.61.34.93.52,1.73.93,3.45,1.9,5.12,2.9l.72.42c.66.39,1.33.77,2,1.18,1.84,1.12,3.64,2.24,5.44,3.42,1,.65,2.09,1.34,3.13,2,3.3,2.22,6.25,4.33,9.07,6.47.84.61,1.81,1.33,2.78,2.11,1.2.94,2.41,1.89,3.59,2.84.13.1,1.29,1.08,1.57,1.33,2,1.62,3.92,3.29,5.76,4.9q6.34,5.7,11.61,11.19c1,1,2,2.07,2.94,3.14s2.11,2.27,3.19,3.53c.17.18.4.44.67.76.58.65,1.15,1.31,1.72,2,.29.32.54.63.79.94l1.78,2.12,1.63,2c.58.72,1.14,1.44,1.7,2.15l.52.67c.42.52.91,1.17,1.39,1.82l.56.74c.91,1.18,1.77,2.35,2.62,3.56l.48.68c.26.39.52.76.8,1.13.11.14.21.29.31.44l.52.75c.47.7.95,1.39,1.41,2.1l.06.08c.65.94,1.32,1.95,1.95,3s1.23,1.86,1.76,2.75c.88,1.39,1.76,2.82,2.57,4.23l.12.19c.22.36.44.72.64,1.09l0,0c.57,1,1.12,1.9,1.64,2.86l.16.28c.33.56.64,1.12.95,1.68.47.85,2.13,3.95,2.17,4l.41.8,1.33,2.64c.2.37.38.75.55,1.13.64,1.28,1.28,2.62,1.94,4.08.31.65.6,1.3.9,2l.22.5c.51,1,.92,2,1.28,2.9,1.95,4.48,3.74,9,5.32,13.58,1.21,3.43,2.38,7.11,3.48,10.91a9.51,9.51,0,0,1,.37,1.29,204.59,204.59,0,0,1,5.77,27.27c.11.64.19,1.29.28,1.93a211.23,211.23,0,0,1,1.87,28.14c0,.63,0,1.28,0,1.92s0,1.25-.05,1.88l-.05,2c0,1.45-.06,2.9-.13,4.35s-.16,2.73-.26,4.09l-.15,2.2c-.06.89-.12,1.77-.2,2.64-.17,1.91-.39,3.81-.62,5.71l-.15,1.33c-.06.63-.13,1.26-.21,1.88-.4,3-.86,6-1.37,8.85A210,210,0,0,1,377.64,400l.11,2c1.3,6.65,2,11.6,2,11.82a11.51,11.51,0,0,1-8,12.5l-55.53,17.52c-1.06,1-2.13,1.92-3.23,2.86a12,12,0,0,1-4.32,3.53c-2.43,1.91-5,3.77-7.59,5.56a12,12,0,0,1-5.91,5,12.55,12.55,0,0,1-3.46.8c-2.52,1.45-5.07,2.82-7.61,4.09C269.16,473.17,249.22,477.47,229.4,477.47Z"/><path class="cls-2" d="M449.44,232.87a200.51,200.51,0,0,1-3,34.79A199,199,0,0,1,200.1,425.17c-2-.52-4-1.06-5.92-1.65q-9-2.65-17.65-6.16a192.63,192.63,0,0,1-24.07-11.63c-3.05-1.73-6.07-3.57-9-5.46A199,199,0,0,1,55.07,268.63a201.45,201.45,0,0,1-3.21-35.76,197.38,197.38,0,0,1,2.54-31.63c.1-.73.23-1.44.35-2.15A194.38,194.38,0,0,1,69.84,150.2,198.61,198.61,0,0,1,336.71,53.64c1.1.52,2.19,1.06,3.27,1.59a1.42,1.42,0,0,0,.23.14h0c.23.11.5.25.73.38,0,0,0,0,0,0,1.32.68,2.69,1.39,4,2.1.25.13.51.29.78.44,1.62.87,3.21,1.77,4.79,2.71.89.52,1.77,1,2.65,1.56,1.73,1.06,3.46,2.13,5.19,3.27,1,.61,2,1.27,3,1.92,2.89,1.94,5.71,3.94,8.5,6,.87.64,1.73,1.27,2.58,2,1.19.92,2.38,1.86,3.55,2.8.45.39.89.73,1.33,1.14,1.9,1.52,3.75,3.13,5.61,4.76,3.75,3.37,7.41,6.87,10.89,10.5,1,1,1.9,2,2.8,3,1.08,1.11,2.08,2.23,3.06,3.38a3.79,3.79,0,0,1,.38.45c.68.75,1.33,1.49,2,2.26.29.33.56.7.85,1l1.25,1.48,1.69,2.12c.75.92,1.46,1.84,2.17,2.75s1.23,1.61,1.85,2.42c.81,1.06,1.57,2.09,2.32,3.17.52.73,1,1.44,1.52,2.14.66,1,1.33,1.92,2,2.9l.06.07c.6.87,1.21,1.79,1.79,2.73s1.1,1.64,1.59,2.48c.83,1.31,1.66,2.66,2.43,4,.25.43.5.81.73,1.23.56,1,1.09,1.85,1.59,2.79.37.64.73,1.25,1.08,1.89.67,1.23,1.33,2.46,2,3.71s1.25,2.44,1.84,3.67a1.25,1.25,0,0,1,.2.4c.71,1.39,1.38,2.81,2,4.23.4.83.76,1.67,1.15,2.52s.75,1.63,1.08,2.44c1.84,4.23,3.53,8.54,5.05,12.9a193.56,193.56,0,0,1,9.11,37.41c.1.58.18,1.15.25,1.73A197.67,197.67,0,0,1,449.44,232.87Z"/><path class="cls-3" d="M404.19,106.58A41.88,41.88,0,1,1,341,55.77c1.32.68,2.69,1.39,4,2.1l.79.44c1.62.87,3.21,1.77,4.79,2.71.88.52,1.77,1,2.65,1.56,1.73,1.06,3.46,2.13,5.19,3.27,1,.61,2,1.27,3,1.92,2.89,1.94,5.71,3.94,8.5,6,.87.64,1.73,1.27,2.58,2,1.19.92,2.38,1.86,3.55,2.8.44.39.89.73,1.33,1.14,1.9,1.52,3.75,3.13,5.61,4.76,3.75,3.37,7.4,6.87,10.88,10.5,1,1,1.91,2,2.81,3,1.08,1.11,2.08,2.23,3.06,3.38a3.79,3.79,0,0,1,.38.45c.67.75,1.33,1.49,2,2.26.29.33.56.7.85,1Z"/><path class="cls-1" d="M194.87,122.43H76.25l.9-.87c4.39-4.09,9.35-8,15.19-9.28a20.44,20.44,0,0,1,18.3,5.09c6.9-7.82,14.13-15.53,22.75-21.44s18.82-10,29.27-9.7,21.06,5.28,26.46,14.22c2.9,4.83,4.19,10.4,5.42,15.9.11.48.43,2.68.2,2.23Z"/><path class="cls-1" d="M441.8,178.06H303.58c4.5-7.07,10.92-13.13,18.86-15.61,8.48-2.67,18.74-.54,24.18,6.5a47.81,47.81,0,0,1,15.73-16.38,34,34,0,0,1,21.93-5c14,1.83,25,13.71,29.92,26.9a19.79,19.79,0,0,1,27.6,3.63Z"/><path class="cls-4" d="M449.44,232.87c0,.56,0,1.13,0,1.69a197.58,197.58,0,0,1-30.18,103.68A199.14,199.14,0,0,1,200.1,425.17c-2-.52-4-1.06-5.92-1.65q-9-2.65-17.65-6.16a192.63,192.63,0,0,1-24.07-11.63c-3.05-1.73-6.07-3.57-9-5.46A199,199,0,0,1,59.09,286.08q-2.42-8.56-4-17.45a201.45,201.45,0,0,1-3.21-35.76,197.38,197.38,0,0,1,2.54-31.63A330.89,330.89,0,0,1,76.1,168c6.75-9.1,16.17-18.75,27.34-17,5.5.87,10.15,4.42,14.52,7.87q11.48,9,22.93,18.05c1.83,1.42,4.15,3,6.31,2.07,1.52-.61,2.36-2.21,3.07-3.67q12-25,24-49.92c6.21-12.88,15.94-27.88,30.18-26.51,8.16.78,14.65,7,19.88,13.36,24.82,30,36.55,68.65,58.54,100.75,3.85,5.6,8.81,11.46,15.57,11.94,4.42.33,8.65-1.79,12.4-4.19,9.1-5.81,16.88-13.52,26.11-19.13s20.76-9,30.82-5.09c7.74,3,13.7,10.05,21.83,11.84,6.6,1.46,13.38-.79,19.83-2.81,12.32-3.82,26.91-6.4,37.94-1,.1.58.18,1.15.25,1.73A197.67,197.67,0,0,1,449.44,232.87Z"/><path class="cls-5" d="M449.42,234.56a197.88,197.88,0,0,1-30.18,103.68A199.14,199.14,0,0,1,200.1,425.17c-2-.52-4-1.06-5.92-1.65q-9-2.65-17.65-6.16a192.63,192.63,0,0,1-24.07-11.63c-3.05-1.73-6.07-3.57-9-5.46A199,199,0,0,1,59.09,286.08,19.31,19.31,0,0,1,70.49,285c2.73.62,6.06,1.7,8-.34a7.31,7.31,0,0,0,1.42-3.83c2.69-15.18,15.25-30.22,30.62-29,8.91.73,16.52,6.6,22.88,12.86,24.28,23.88,38.41,55.95,58,83.78,2.21,3.14,5.21,6.58,9,6.25,3.13-.27,5.4-3,7.51-5.27,12.54-13.65,32.11-20,50.49-17.66s35.31,12.76,46.81,27.29c9.05-21.2,33.87-34.37,56.52-30,2.48-19.32,5.34-39.58,17-55.23s35.09-24.3,51.16-13.3c3.88-8.48,8.48-16.9,15.51-23A32.06,32.06,0,0,1,449.42,234.56Z"/><path class="cls-6" d="M255.56,131.92s.74,40-2,49.57c0,0,25,10.55,43.2,7.61l5.07-39.35Z"/><circle class="cls-6" cx="280.84" cy="108.08" r="38.53"/><path class="cls-6" d="M318.51,99.77l2.09,24.78s8.59,17.18,6.63,19.15-5.89,1.71-5.89,1.71,2.69,29-7.86,30.44-35.83-9.33-38.77-14.73-10.56-42-10.56-42Z"/><path class="cls-7" d="M318.27,125.54c0,2-1,3.68-2.27,3.68s-2.27-1.65-2.27-3.68,1-3.69,2.27-3.69S318.27,123.5,318.27,125.54Z"/><path class="cls-7" d="M312.44,116.35a1.07,1.07,0,0,0,.61.72,2.41,2.41,0,0,0,.95.19,13.63,13.63,0,0,0,3-.35,2.65,2.65,0,0,0,1.88-1c1-1.68-1.6-3.44-3.08-3.24C314.52,112.89,312.18,115,312.44,116.35Z"/><path class="cls-8" d="M315.85,146.19a18.6,18.6,0,0,0,2.58,2.74,6.12,6.12,0,0,0,3.41,1.46"/><path class="cls-7" d="M236.54,144.57c.81,2.42,1.74,4.81,2.77,7.15a22.75,22.75,0,0,0,4.31,7,9.37,9.37,0,0,0,7.39,3c1.7-.18,3.3-1,5-1.16,4.65-.5,8.81,3.57,13.48,3.31,3.12-.17,5.87-2.31,7.57-4.93s6.49-5.49,7.3-8.51c.93-3.46-2.09-7.14-1.15-10.6a7.59,7.59,0,0,1,2.62-3.68,2.92,2.92,0,0,1,1.87-.82c2.15.06,2.53,3.47,4.51,4.3a3,3,0,0,0,2.88-.57,7,7,0,0,0,1.78-2.48c2.61-5.27,3.41-11.26,3.57-17.14,3.76.57,7.39-1.57,9.87-4.45a19,19,0,0,0,4.09-10.45A56.1,56.1,0,0,0,314,93.15c4.91-1.44,10.66-4.23,12.32-9.06a12.68,12.68,0,0,0-1.87-11,24.39,24.39,0,0,0-8.76-7.38,45.78,45.78,0,0,0-22.47-5.56c-12.33.17-24,5.3-36.08,7.77-4.52.93-9.18,1.5-13.4,3.37-8.15,3.6-13.7,11.74-15.81,20.4s-1.17,17.8.84,26.49S233.71,136.12,236.54,144.57Z"/><path class="cls-6" d="M293.26,131.6a11,11,0,0,0-4.37-6.21,6.71,6.71,0,0,0-7.31-.1c-1.83,1.3-2.67,3.56-3.22,5.73-1,4-1.34,8.31.15,12.15s5.12,7,9.23,7.05a5.11,5.11,0,0,0,3.23-.95,6.27,6.27,0,0,0,1.77-2.68A22.3,22.3,0,0,0,293.26,131.6Z"/><path class="cls-8" d="M279.5,128.29c4.62.17,8.67,3.51,10.89,7.56a19.6,19.6,0,0,1,2.32,7.72"/><polygon class="cls-6" points="361.09 298.8 366.98 404.33 325.75 406.79 322.32 296.35 361.09 298.8"/><path class="cls-3" d="M208.28,192.13S237,180,253.44,180c20,0,28.14-1.47,46.3,8.34s40.74,13.75,52,35.34,20.61,73.87,20.61,73.87l-49.57,7.61,2.94,94.24H189.3S187.17,206.85,208.28,192.13Z"/><path class="cls-9" d="M320.35,423s-4.92,7.3-15.8,16.28l-.7.56a124.62,124.62,0,0,1-10.32,7.55,2.57,2.57,0,0,1-.38.23l0,0c-.5.37-1,.7-1.58,1-.27.18-.56.35-.84.52-3.39,2.1-7.08,4.19-11.08,6.19-28.47,14.25-84.41,17.67-111.9-12.76-4.48-5-7.88-11.85-10.4-19.88a105.55,105.55,0,0,1-2.85-11.09,3.55,3.55,0,0,1-.09-.5c-.27-1.39-.54-2.75-.77-4.14-.06-.25-.1-.5-.14-.75q-.89-5.47-1.5-11.24a2.58,2.58,0,0,1,0-.39c-3-28.7-.52-60.63,1-75.72v0c.44-4.35.81-7.29.94-8.35,0-.28.06-.44.06-.44a7.64,7.64,0,0,1-1.59-.07,7.24,7.24,0,0,1-.81-.12,30.24,30.24,0,0,1-10.84-4.71c-8.35-5.4-17.19-31.43-21.11-55a59.9,59.9,0,0,1-.44-17.71c0-.32.09-.63.15-1,3-19.88,18.15-41.52,63.59-55.94,38.13-12.09,54.33-6.36,61.1-.5.25.21.48.42.71.65a13.58,13.58,0,0,1,4,6.23Z"/><path class="cls-1" d="M293.1,447.62a.49.49,0,0,1-.44-.3c-6-14.69-12.25-29.88-18.65-44.78-8.43-19.64-17.78-40.32-31.14-58.42-3.84-5.2-8.64-10.74-15.08-12.4-3.55-.92-7.41-.57-10.83-.27-8.57.75-18.3,1.61-27.37,4.11-10,2.77-18,7.2-23.83,13.18-8.07,8.31-12.76,20.81-13.21,35.18-.41,12.95,2.39,25.81,5.11,38.25a.49.49,0,0,1-.37.57.47.47,0,0,1-.57-.37c-2.73-12.49-5.54-25.41-5.13-38.48.46-14.61,5.25-27.33,13.48-35.81,5.93-6.12,14.09-10.63,24.26-13.44,9.17-2.53,18.93-3.39,27.55-4.15,3.49-.3,7.44-.65,11.15.3,6.74,1.73,11.67,7.42,15.62,12.76,13.42,18.18,22.79,38.92,31.24,58.61,6.4,14.9,12.63,30.1,18.66,44.8a.48.48,0,0,1-.26.62A.41.41,0,0,1,293.1,447.62Z"/><path class="cls-1" d="M291.41,450.11a.5.5,0,0,1-.45-.3,748.29,748.29,0,0,0-32.18-69.47c-5.68-10.79-12.5-23.17-21.53-33.63-3.49-4-8.94-9.72-16-12.26-7.92-2.87-16.73-1.56-24.5-.4a.49.49,0,0,1-.55-.41.47.47,0,0,1,.41-.54c7.89-1.18,16.82-2.51,25,.44,7.23,2.62,12.8,8.41,16.36,12.54,9.09,10.53,15.94,23,21.65,33.81a747.62,747.62,0,0,1,32.22,69.56.47.47,0,0,1-.26.62A.39.39,0,0,1,291.41,450.11Z"/><path class="cls-1" d="M244.82,175.66l-.1.09c-5,4.94-9.32,11-13.55,16.94-6.81,9.5-13.8,19.28-23.59,24.68-.27.16-.56.31-.85.46a33.38,33.38,0,0,1-3.8,1.68c-19.25,7.15-39.87,9.88-59.83,12.53a112.62,112.62,0,0,1-15,1.31,43.46,43.46,0,0,1-9-.85c.06-.32.09-.63.15-1,7.84,1.65,16.17.54,23.67-.46,19.89-2.63,40.46-5.36,59.59-12.48a30.61,30.61,0,0,0,4.08-1.84.07.07,0,0,0,.07-.06h0c9.79-5.25,16.83-15,23.63-24.57,4.25-5.9,8.61-12,13.63-17l.14-.14a.48.48,0,0,1,.67,0A.48.48,0,0,1,244.82,175.66Z"/><path class="cls-1" d="M304.09,439.87a.46.46,0,0,1-.44-.29l-75.6-175.5c-6.67-15.49-13.58-31.51-21.55-46.7a.49.49,0,0,1,.2-.65.47.47,0,0,1,.65.2c8,15.22,14.9,31.26,21.58,46.77l75.6,175.5a.48.48,0,0,1-.25.63A.43.43,0,0,1,304.09,439.87Z"/><path class="cls-1" d="M152.8,310.66a.48.48,0,0,1-.48-.44.47.47,0,0,1,.43-.52c9.74-.88,19.15-4.07,28.26-7.15l.66-.22C200.46,296,218.2,290,234.56,279.14a.48.48,0,0,1,.67.13.49.49,0,0,1-.14.67c-16.46,10.9-34.26,16.92-53.11,23.3l-.66.22c-9.16,3.1-18.63,6.31-28.48,7.2Z"/><path class="cls-3" d="M211.57,281.13a37.5,37.5,0,0,0-9.89,5.6c2,7,4.54,13.79,7.21,20.6,4.25-.69,9-1.43,13-3C218.65,296.33,214.8,289.1,211.57,281.13Z"/><path class="cls-3" d="M161.31,297.26a37.4,37.4,0,0,0-10.79,3.56c.63,7.28,1.76,14.42,3.06,21.61,4.3.16,9.1.35,13.34-.44C165.29,313.54,162.93,305.7,161.31,297.26Z"/><path class="cls-9" d="M318,196.76a76.58,76.58,0,0,0-29.24,40.09c-4.46-2.33-8.28-5.6-12.65-8.12a95.62,95.62,0,0,1,11.31-22.43,50.09,50.09,0,0,1,17.18-15.48Z"/><path class="cls-10" d="M369,415.29l-61.19,19.3s-8.52-26.82-4.58-32.72c0,0-17.68-2.61-30.76-33.05-.4-1-.84-2-1.3-3.05-1.77-4.14-3.91-9.15-6.25-14.79-5.31-12.69-11.69-28.47-17.59-44.35-1.89-5.05-3.71-10.11-5.42-15.09-9.79-28.2-16.27-53.54-10-58.19V232s-17.67-8.17-18-39.25c0,0,13.82-.5,17.41-1.81,0,0-11.53-8.67,8.43-15.86s27.81-7.21,34.7,4.25,9.15,39.91,9.15,39.91,5.9,0,9.17,3.61c1.75,1.92,7.88,21.11,15.2,41.93,1.85,5.19,3.75,10.5,5.69,15.65,4.81,12.84,9.77,24.78,14.11,32.06,1.48,2.5,3,5.1,4.44,7.77,2.68,4.86,5.29,9.94,7.71,14.9,8,16.3,13.94,31.49,13.71,34.6A16.28,16.28,0,0,1,350.3,378s10.46,1.31,13.75,13.1A203.88,203.88,0,0,1,369,415.29Z"/><path class="cls-8" d="M237.53,189.59l-2.7-7.73s20-9.82,26.87-2"/><path class="cls-8" d="M213.84,192.78s17.31.12,32.4-5.64,20.61-8.23,21.84-15"/><path class="cls-1" d="M313.6,280.47a194.7,194.7,0,0,1-66.32,26.16c-1.89-5.05-3.71-10.11-5.42-15.09,1.8-.31,3.63-.71,5.42-1.11,21.59-4.87,43.73-11.62,60.63-25.61C309.76,270,311.66,275.32,313.6,280.47Z"/><path class="cls-1" d="M339.86,335.2a202.52,202.52,0,0,1-68.74,30.57c-1.77-4.14-3.91-9.15-6.25-14.79,1.46-.32,2.9-.69,4.34-1.05C292,344,315.22,336,332.15,320.3,334.83,325.16,337.44,330.24,339.86,335.2Z"/><path class="cls-8" d="M231.18,232.67a106.67,106.67,0,0,0,43.29-7.12,27.72,27.72,0,0,0,9.81-6.51"/><path class="cls-8" d="M301.7,401.72a38.6,38.6,0,0,0,8.63-1.65A110.21,110.21,0,0,0,351.64,378"/></svg>