<?xml version="1.0" encoding="utf-8"?>
<!-- Generator: Adobe Illustrator 24.1.2, SVG Export Plug-In . SVG Version: 6.00 Build 0)  -->
<svg version="1.1" id="Layer_1" xmlns="http://www.w3.org/2000/svg" xmlns:xlink="http://www.w3.org/1999/xlink" x="0px" y="0px"
	 width="733.5px" height="693.5px" viewBox="0 0 733.5 693.5" style="enable-background:new 0 0 733.5 693.5;" xml:space="preserve"
	>
<style type="text/css">
	.st0{fill:#FFFFFF;}
	.st1{fill:#2175DC;}
</style>
<g>
	<path class="st0" d="M556.8,220c-1.1-1.6-2.3-3.2-3.3-4.6c-5.4-7.3-9.3-11.6-10.1-12.3c0,0,0,0-0.1,0c-1.3-1.1-3.2-0.2-3.3,1.4
		c-0.3,5.5-0.7,11.6-1.1,16.3c-0.1,1.1,0.2,2.2,0.9,3.1c8.7,11.4,16.4,23.9,22.6,37.5c29.9,65.1,21.1,138.3-16.6,195.5
		c0,0.1-0.1,0.1-0.1,0.2c-21.8,34.3-53.5,60.6-89.9,76.9c-0.9,0.4-1.7,0.8-2.6,1.1c-0.7,0.3-1.3,0.6-2,0.8
		c-105,45.7-226.3,2.4-272.5-98.3c-6.5-14.2-11.2-28.9-14.1-43.7c-0.2-1.1-0.9-2-1.8-2.5c-4.8-2.8-8.6-5.6-11.9-8
		c-1.6-1.2-3.8-0.1-4,1.8c0,0.2,0,0.4,0,0.7c0.3,2.1,0.7,4.4,1.1,6.7c0.1,0.5,0.2,1.1,0.3,1.6c0.5,2.9,1.1,5.8,1.7,8.3
		c0.1,0.7,0.3,1.3,0.4,2c0.6,2.9,1.1,5.1,1.3,5.7c0.4,1.4,0.8,2.7,1.2,4.1c0.1,0.2,0.1,0.5,0.2,0.7c0.7,2.4,1.4,4.7,2.2,7.1
		c2.6,8.2,5.7,16.3,9.4,24.2c24.4,53.2,67.9,91.8,119.2,111.8c1.5,0.6,3,1.2,4.5,1.7c0.9,0.3,1.9,0.7,2.8,1c0.2,0.1,0.4,0.2,0.7,0.2
		c27.2,9.6,55.7,13.6,84,12.4l1.2,0c3.3-0.1,6.6-0.4,9.9-0.7l0.1,0c3-0.3,6-0.6,9-1c1-0.1,2.1-0.3,3.1-0.4c2.3-0.3,4.7-0.7,7-1.1
		c0.1,0,0.2,0,0.4-0.1c32.9-5.7,64.5-18.3,92.1-36.9c59.9-40.5,97.6-111.8,98.9-176.4c0-0.6,0.1-1.1,0.1-1.7
		c0.2-2.3,0.6-9.8-0.2-21.2c-1.2-20-5.1-40.1-12.1-59.6c-0.5-1.6-1.1-3.1-1.6-4.7c-0.3-0.8-0.6-1.5-0.9-2.3
		c-0.4-1.1-0.9-2.1-1.3-3.1c-0.3-0.8-0.7-1.6-1-2.4c-0.8-1.8-1.5-3.7-2.3-5.5C572.2,243.4,564.9,231.3,556.8,220z"/>
	<path class="st0" d="M165.3,303.2c1.3,0.4,2.6-0.3,2.9-1.6c9.9-35.6,29.4-68.8,57-95.5c19-18.9,41.4-33.4,65.6-43.4
		c59.3-25.5,123.7-22.6,176.8,2.9c1.1,0.5,2.5,0.1,3.1-1c1.5-2.8,2.7-5.4,4.5-9.8c0.4-1.1,0-2.4-1-2.9c-7.4-4-18.3-8.4-22.4-9.9
		c-40.1-14.1-84.6-17-128.2-6.8c-0.7,0.2-1.4,0.3-2.1,0.5c-2.3,0.6-4.6,1.2-7,1.8c-3,0.8-6.1,1.7-9.1,2.7c-0.3,0.1-0.7,0.2-1,0.3
		c-8.5,2.8-17,6-25.4,9.9c-12.1,5.6-23.5,12.1-34.2,19.4c-1.8,1.2-3.6,2.4-5.4,3.7c-0.1,0.1-0.2,0.2-0.4,0.3
		c-27.1,19.7-48.9,44.5-64.7,72.3c-0.6,1.1-1.2,2.2-1.8,3.3c-1,1.9-2,3.7-3,5.6c-0.5,0.9-0.9,1.8-1.4,2.7c-3.5,7-6.8,14.2-9.7,21.6
		c-1.1,2.8-2.8,8.3-4.2,13.8c-0.3,1.2-0.6,2.4-0.8,3.6c-0.2,1.1,0.3,2.1,1.3,2.6C157.5,300.4,161,301.8,165.3,303.2z"/>
	<path class="st0" d="M420.4,287.1c1.8,2.4,5.2,2.2,7.2,0.3c26.8-25.4,55.4-73.7,74.7-116.3c0.7-1.5,1.8-3.5,3.4-3.1
		c1.2,0.3,1.8,1.7,2,2.9c1.6,6.9,0.4,24.6-0.8,31.6c-6.8,39.7-17.6,67.2-31.7,100.4c-0.7,1.7-1.5,3.7-0.7,5.4
		c1.2,2.6,4.9,2.8,7.6,1.9c12.6-4.3,22.1-11.3,33.8-15.5c0.9-0.3,2.1-0.6,2.9,0c0.8,0.7,0.6,2,0.3,3c-5.4,18.3-20.6,31.8-30,48.4
		c-2.2,3.8-3.9,9-1,12.3c1.6,1.8,4.2,2.4,6.6,2.7c6.3,0.9,11.1-0.2,18.9-0.4c1.5,0,3.3-0.5,4.3,0.7c0.9,1.2,0.5,3-0.3,4.3
		c-16.9,25.2-23.8,32.2-37.3,51.5c-1.4,1.9-2.2,4.9-0.4,6.5c1.7,1.5,4.4,0.4,6.2-1c20.5-15.7,53.3-49.7,67-83.1
		c0.6-1.4,1.1-3.1,0.2-4.3c-1.1-1.5-3.3-1.2-5-0.7c-8.5,2.2-17,4.5-25.6,6.7c-1.6,0.4-5.1,1.3-7.8,1.9c-1.3,0.3-2.3-1.2-1.5-2.2
		c15.3-20.4,32.9-44.8,36-69.5c0.6-4.5-0.3-10.5-4.8-11.3c-2-0.4-4,0.5-5.8,1.4c-8.2,4-24.6,14.5-34.1,19.4
		c-0.8,0.4-1.7-0.4-1.4-1.2c0,0,13.5-33.5,17.8-53.1c6.6-32.5,6-65.6-4.8-97.2c-0.5-1.5-1.1-3.1-2.4-4.2c-2.3-1.9-5.9-1.2-8.2,0.8
		c-2.2,2-3.3,4.9-4.4,7.7c-19.6,51.5-46.2,100.4-78.8,144.8C420.9,281,418.1,284.1,420.4,287.1z"/>
	<path class="st0" d="M309.3,319.6c-0.1,35.5,15.2,68.9,30.2,101c11,23.7,22.1,47.4,33.8,70.7c4.2,8.4,9.1,17.3,17.5,21.5
		c15.3,7.6,36-0.4,51.6-7.6c15.7-7.1,35.2-17.6,39.4-34.2c2.3-9.1-1.3-18.6-4.9-27.3c-10.1-24.1-20.8-47.9-31.6-71.7
		c-14.6-32.3-30-65.7-56.9-88.8c-10.8-9.2-19.8-15.7-28.3-27c-7.5-10.1-14.7-23.5-19.8-35c-3.3-7.6-13.3-30.9-13.3-30.9
		s-1.2-3.3-5.2-5c-6-2.6-16.1-0.8-24.9,3.3c-8.8,4-16.8,10.5-18.7,16.7c-1.3,4.1,0.4,7.2,0.4,7.2s11.2,22.7,14.8,30.2
		c5.4,11.4,10.9,25.5,13.7,37.8C310.3,294.4,309.3,305.4,309.3,319.6z M327.7,299.5c-0.5-29.6-18-58.1-31.6-90.7l8.5-3.8l8.4-4
		c15.8,31.6,26.1,63.4,48.2,83.1c11.3,10,19.8,18.5,29.3,30.2c9.4,11.6,18.9,23.4,26.5,40.5c18,40.1,33.2,71.9,52.7,115.2
		c0,0-12.8,10.4-30.8,19.2c-1,0.5-2,1-3,1.5c-1,0.5-2.1,0.9-3.1,1.3c-18.5,7.9-34.7,10.9-34.7,10.9c-20.1-43-34.3-75.3-53-115
		c-7.9-16.9-10.8-31.8-13.4-46.5C328.8,326.5,327.9,314.6,327.7,299.5z"/>
	<path class="st0" d="M179.7,383.4c17.6,9.5,51.9,21.1,51.9,21.1c0.8,0.3,0.8,1.5,0,1.8c-9.9,3.9-28.6,9.5-36.9,13.2
		c-1.9,0.8-3.8,1.7-4.8,3.5c-2.3,3.9,1.7,8.5,5.5,11c20.8,13.8,50.7,16.3,76.1,18c1.3,0.1,1.8,1.8,0.7,2.6c-2.3,1.6-5.2,3.7-6.6,4.7
		c-7.2,5-14.5,10-21.7,15c-1.5,1-3.2,2.5-2.7,4.3c0.4,1.5,2,2.2,3.4,2.6c34.2,11.4,81.4,8.7,106.7,3.3c2.2-0.5,4.9-1.8,4.8-4.1
		c0-2.4-2.8-3.7-5.2-3.9c-23.4-2.3-33.2-1.6-63.4-5.2c-1.5-0.2-3.2-1-3.5-2.5c-0.3-1.5,1.2-2.6,2.3-3.7c5.3-5.8,9.2-8.7,12.7-14.1
		c1.3-2,2.5-4.4,2.2-6.8c-0.6-4.4-5.6-6.4-9.9-7.2c-18.7-3.7-38.9-0.9-56.3-8.8c-1-0.4-2-1.1-2.1-2.1c0-1,1-1.7,1.8-2.2
		c10.9-6.1,22.4-8.8,33.8-15.5c2.4-1.4,4.7-4.4,3.5-7c-0.8-1.7-2.8-2.5-4.6-3c-34.4-11-62.2-20.7-96.8-41.4
		c-6.1-3.7-20.3-14.3-24.5-20c-0.7-1-1.4-2.3-0.8-3.4c0.8-1.5,3-1,4.6-0.6C194.8,346,250,355.8,286.8,352c2.8-0.3,5.1-2.8,4.5-5.7
		c-0.8-3.7-5-3.6-8-3.8c-55-4.3-109.3-15.9-161.2-34.6c-2.8-1-5.7-2.1-8.7-1.7c-3,0.4-5.9,2.7-5.9,5.7c0,1.6,0.8,3.1,1.7,4.5
		C126.1,345.2,150.7,367.2,179.7,383.4z"/>
</g>
</svg>
